<?xml version="1.0" encoding="utf-8"?>
<!-- Generator: Adobe Illustrator 26.0.1, SVG Export Plug-In . SVG Version: 6.00 Build 0)  -->
<svg version="1.1" id="Layer_1" xmlns="http://www.w3.org/2000/svg" xmlns:xlink="http://www.w3.org/1999/xlink" x="0px" y="0px"
	 viewBox="0 0 100 100" style="enable-background:new 0 0 100 100;" xml:space="preserve">
<g>
	<path d="M62.4,10c1.1,0.8,1.2,1.4,0.5,2.6c-1.1,1.8-2.1,3.5-3.1,5.2c1.4,1,2.9,1.9,4.2,3.1c4.6,4.1,7,9.3,7.2,15.5
		c0,1.1-0.5,1.6-1.6,1.7c-0.2,0-0.4,0-0.6,0c-12.6,0-25.1,0-37.7,0c-1.8,0-2.3-0.5-2.2-2.3c0.5-7.8,4.2-13.6,10.9-17.6
		c0.1-0.1,0.3-0.2,0.5-0.3c-0.5-0.9-1-1.7-1.5-2.5c-0.6-1-1.2-1.9-1.7-2.9c-0.7-1.2-0.6-1.8,0.5-2.5c0.3,0,0.5,0,0.8,0
		c0.4,0.4,0.8,0.7,1.1,1.2c1.1,1.7,2.1,3.4,3.1,5.1c0.2,0.4,0.5,0.5,0.9,0.4c4.3-1.4,8.6-1.4,12.9,0c0.5,0.1,0.7,0,0.9-0.4
		c1-1.7,2-3.5,3.1-5.1c0.3-0.4,0.7-0.8,1.1-1.2C61.8,10,62.1,10,62.4,10z M68.1,35.2C67.7,26.7,60,18,49.2,18.5
		c-10.5,0.5-17.1,9.3-17.3,16.8C44,35.2,56,35.2,68.1,35.2z"/>
	<path d="M37.4,76.1c-1.2-0.1-2.3-0.1-3.3-0.3c-3.2-0.8-5.1-3.4-5.1-6.8c0-9.2,0-18.4,0-27.6c0-1.3,0.5-1.8,1.7-1.8
		c12.9,0,25.8,0,38.7,0c1.2,0,1.7,0.5,1.7,1.7c0,9.3,0,18.5,0,27.8c0,4.2-3,6.9-7.1,6.9c-0.4,0-0.8,0-1.3,0c0,0.4,0,0.7,0,1
		c0,2.7,0.1,5.5-0.1,8.2C62.3,87.9,59.8,90,57,90c-2.7,0-5.1-2-5.5-4.8c-0.1-1-0.1-2-0.1-3c0-2,0-4.1,0-6.1c0,0,0-0.1-0.1-0.2
		c-0.9,0-1.7,0-2.7,0c0,0.3,0,0.6,0,0.8c0,2.5,0,5,0,7.5c-0.1,4-3.7,6.6-7.5,5.3c-2.2-0.7-3.7-2.9-3.7-5.5c0-2.4,0-4.8,0-7.3
		C37.4,76.6,37.4,76.3,37.4,76.1z M31.7,42.3c0,0.4,0,0.7,0,1c0,5.2,0,10.4,0,15.5c0,3.3,0,6.7,0,10c0,2.6,1.7,4.2,4.3,4.2
		c0.7,0,1.5,0,2.2,0c1.5,0,2,0.5,2,1.9c0,3,0,5.9,0,8.9c0,0.5,0.1,1,0.3,1.5c0.5,1.2,1.8,1.9,3.1,1.6c1.3-0.3,2.3-1.4,2.3-2.8
		c0-3.1,0-6.2,0-9.4c0-1.3,0.5-1.8,1.8-1.8c1.5,0,2.9,0,4.4,0c1.8,0,2.2,0.4,2.2,2.2c0,3,0,6,0,9.1c0,1.2,0.6,2.1,1.7,2.6
		c1.1,0.5,2.1,0.3,3-0.5c0.7-0.6,0.9-1.4,0.9-2.3c0-3,0-6.1,0-9.1c0-1.3,0.5-1.8,1.8-1.8c0.7,0,1.4,0,2,0c3,0,4.5-1.6,4.5-4.5
		c0-8.5,0-17,0-25.5c0-0.3,0-0.5,0-0.8C56,42.3,43.9,42.3,31.7,42.3z"/>
	<path d="M27.5,54.2c0,3.2,0,6.5,0,9.7c0,3.1-2.4,5.2-5.4,5c-2.5-0.2-4.4-2.2-4.4-5c-0.1-6.5-0.1-12.9,0-19.4c0.1-4,4-6.3,7.4-4.4
		c1.5,0.9,2.3,2.2,2.4,3.9C27.5,47.4,27.5,50.8,27.5,54.2C27.5,54.2,27.5,54.2,27.5,54.2z M24.7,54.3c0-3.3,0-6.5,0-9.8
		c0-1.4-1-2.3-2.3-2.2c-1.1,0.1-1.9,1-1.9,2.4c0,6.3,0,12.7,0,19c0,0.3,0,0.6,0.1,0.8c0.3,1.2,1.6,1.8,2.7,1.4
		c0.9-0.3,1.4-1.1,1.4-2.2C24.7,60.6,24.7,57.5,24.7,54.3z"/>
	<path d="M72.5,54.2c0-3.2,0-6.5,0-9.7c0-3.1,2.4-5.3,5.5-5c2.4,0.2,4.3,2.3,4.3,5c0.1,6.5,0.1,12.9,0,19.4c0,4.3-4.4,6.2-7.4,4.3
		c-1.5-0.9-2.3-2.2-2.4-3.9C72.5,61,72.5,57.6,72.5,54.2C72.5,54.2,72.5,54.2,72.5,54.2z M75.3,54.2c0,0.6,0,1.2,0,1.8
		c0,2.7,0,5.3,0,8c0,1.3,0.9,2.2,2.2,2.2c1.3,0,2-1,2-2.5c0-6.2,0-12.5,0-18.7c0-0.3,0-0.6-0.1-0.9c-0.2-0.9-1-1.6-1.9-1.6
		c-1.3,0-2.2,0.8-2.2,2.2C75.3,47.8,75.3,51,75.3,54.2z"/>
	<path d="M43,27.9c0,0.4,0,0.8-0.1,1.1c-0.2,0.6-0.7,0.7-1.3,0.6c-0.8-0.1-1.9,0.4-2.2-0.6c-0.2-0.7-0.3-1.7,0-2.4
		c0.4-1.1,1.5-0.5,2.3-0.6c0.5-0.1,1,0.1,1.2,0.7C43,27,43,27.4,43,27.9z"/>
	<path d="M57,27.8c0-0.3-0.1-0.7,0-0.9c0.2-0.3,0.5-0.8,0.8-0.9c0.6-0.1,1.4-0.1,2,0c0.3,0.1,0.7,0.4,0.8,0.7c0.1,0.7,0.2,1.5,0,2.2
		c-0.4,1.3-1.7,0.6-2.6,0.7c-0.7,0.1-1.1-0.4-1-1.1C57,28.3,57,28,57,27.8C57,27.8,57,27.8,57,27.8z"/>
</g>
</svg>
