<svg xmlns="http://www.w3.org/2000/svg" viewBox="0 0 268.15 248.12"><defs><style>.cls-1{fill:#f8f1d4;}</style></defs><g id="Layer_2" data-name="Layer 2"><g id="Layer_1-2" data-name="Layer 1"><path class="cls-1" d="M31.91,203c-.38,9.4-7.58,14.06-14.83,14.06a17.14,17.14,0,0,1-.14-34.27,15.94,15.94,0,0,1,7.77,1.88c1.92,1.24,3.22,2.44,3.22,4.27a3.18,3.18,0,0,1-3.36,3.21,4.82,4.82,0,0,1-2.78-1A8.57,8.57,0,0,0,17,189.59c-5.14,0-9.46,4.56-9.46,10.31s4.27,10.32,9.5,10.32c3.17,0,7.2-2,7.78-5.8H20.2a3.06,3.06,0,0,1-3.12-3,3,3,0,0,1,3.12-2.93H28C30.71,198.51,32,200.38,31.91,203Z"/><path class="cls-1" d="M70.06,199.9a16.85,16.85,0,1,1-16.84-17.13A17,17,0,0,1,70.06,199.9Zm-26.1,0c0,6.24,4.07,10.32,9.26,10.32s9.26-4.08,9.26-10.32-4-10.31-9.26-10.31S44,193.67,44,199.9Z"/><path class="cls-1" d="M106.77,203c-.38,9.4-7.58,14.06-14.83,14.06a17.14,17.14,0,0,1-.14-34.27,15.94,15.94,0,0,1,7.77,1.88c1.92,1.24,3.22,2.44,3.22,4.27a3.19,3.19,0,0,1-3.36,3.21,4.88,4.88,0,0,1-2.79-1,8.5,8.5,0,0,0-4.75-1.53c-5.13,0-9.45,4.56-9.45,10.31s4.27,10.32,9.5,10.32c3.17,0,7.2-2,7.78-5.8H95.06a3.06,3.06,0,0,1-3.12-3,3,3,0,0,1,3.12-2.93h7.77C105.57,198.51,106.86,200.38,106.77,203Z"/><path class="cls-1" d="M139.74,213.68a3.41,3.41,0,0,1-3.46,3.26,3.58,3.58,0,0,1-3.5-2.3l-2.16-5h-13l-2.11,5a3.58,3.58,0,0,1-3.5,2.3,3.38,3.38,0,0,1-3.46-3.26,5,5,0,0,1,.48-2.07l11.57-26.05c.81-1.83,1.92-2.69,3.5-2.69s2.74.86,3.5,2.69l11.62,26.05A5,5,0,0,1,139.74,213.68Zm-11.52-9.74-4.08-9.65-4.08,9.65Z"/><path class="cls-1" d="M169.78,213.48a3.26,3.26,0,0,1-3.27,3.36,3.14,3.14,0,0,1-2.64-1.34L155.62,205h-4.13v8.4a3.6,3.6,0,1,1-7.19,0V187.09a3.86,3.86,0,0,1,4-4h8.78c7.49,0,12.33,5,12.33,11a10.44,10.44,0,0,1-6.62,9.79l6.14,7.34A3.47,3.47,0,0,1,169.78,213.48ZM151.49,198.9h5.19c3.16,0,5.71-1,5.71-4.75s-2.55-4.9-5.71-4.9h-5.19Z"/><path class="cls-1" d="M199.67,206.81c0,5.81-4.22,9.89-12.38,9.89h-8.73a3.85,3.85,0,0,1-4-4V187.09a3.85,3.85,0,0,1,4-4h8.2c5.76,0,10.56,2.74,10.56,8.45a6.4,6.4,0,0,1-4.27,6.43C198.14,200,199.67,203.17,199.67,206.81ZM181.77,196h5a3.43,3.43,0,0,0,3.55-3.55c0-2.16-1.44-3.27-3.55-3.27h-5Zm10.9,10.12c0-2.25-1.2-4.6-5.38-4.6h-5.52v9.07h5.52C191.37,210.61,192.67,208.35,192.67,206.14Z"/><path class="cls-1" d="M228.9,183a3.6,3.6,0,0,1,3.55,3.64V213.2a3.6,3.6,0,1,1-7.2,0v-10H211.67v10a3.6,3.6,0,1,1-7.2,0V186.61a3.6,3.6,0,1,1,7.2,0v10.46h13.58V186.61A3.61,3.61,0,0,1,228.9,183Z"/><path class="cls-1" d="M268.15,213.68a3.41,3.41,0,0,1-3.46,3.26,3.6,3.6,0,0,1-3.5-2.3l-2.16-5h-13l-2.11,5a3.58,3.58,0,0,1-3.5,2.3,3.38,3.38,0,0,1-3.46-3.26,4.85,4.85,0,0,1,.49-2.07l11.56-26.05c.81-1.83,1.92-2.69,3.5-2.69s2.74.86,3.51,2.69l11.61,26.05A4.85,4.85,0,0,1,268.15,213.68Zm-11.52-9.74-4.08-9.65-4.08,9.65Z"/><path class="cls-1" d="M139.21,74.2a40.2,40.2,0,0,0-7.12.64,14.83,14.83,0,0,1,2.78-.24h.24a20.9,20.9,0,0,1,16.08,7.66c.24.3.47.64.71,1a10.8,10.8,0,0,1,.74,1.21.71.71,0,0,1,.1.2,9.51,9.51,0,0,1,.67,1.31,3,3,0,0,0,.17.47,4.48,4.48,0,0,1,.37.94,19,19,0,0,1-33.11,17.7c-.24-.27-.44-.57-.64-.84A18.19,18.19,0,0,1,117,97.57a19.94,19.94,0,0,1-.51-5.27,20,20,0,0,0-1.44-7,21.07,21.07,0,0,0-2-3.49,23,23,0,0,0-7-6.18c-3.59-2.08-8-4.57-9.27-4.94-6.14-1.68-3.59-11.18,2.56-9.5a5.75,5.75,0,0,0,2.15,0,22.79,22.79,0,0,0,4.53-1,29.34,29.34,0,0,0,7.76-3.36c2.65-1.68,9.63-1.24,11.28,5.07,3.93-1.11,9.43,1.88,9.43,1.88s-2.72,3.29-5.74,3.29c2.42,4.87,9.84,4.2,13.67.4l-.1-.3c-1.11-3.83,1.34-7.82,2.89-9.91a6.68,6.68,0,0,0,1.37-4.6,16.21,16.21,0,0,0-1.47-5.2,41.42,41.42,0,0,0-3.8-6.68l-.1-.17-.13-.2-.68-.91c-1.57-2.28-3.35-4.84-3.29-8,0-.33.14-.87.27-1.44a21.35,21.35,0,0,1-9.53,2.52,15.87,15.87,0,0,1-10-3.53A65.27,65.27,0,0,0,130.11,156.6a40.06,40.06,0,0,0,7.95.27h.27l.17,0a57.32,57.32,0,0,0,6.85-.84,48.72,48.72,0,0,0,14.44-5,41.26,41.26,0,0,0,22.26-36.67C182.05,91.53,162,74.2,139.21,74.2Z"/><path class="cls-1" d="M183.24,18.2c-4.6,0-8.73,1.11-10.78,1.11H172a1.71,1.71,0,0,1-.3-3.33c16.82-5.64,8-16,8-16,.07,7.45-5.47,9.6-9.53,10.17a7.08,7.08,0,0,1-1.51.14,12.47,12.47,0,0,1-5-1.14.11.11,0,0,1-.1,0,18,18,0,0,0-7.35-1.54h-.2a18.2,18.2,0,0,0-7.36,1.54s0,0-.07,0a12.45,12.45,0,0,1-5,1.14,6.92,6.92,0,0,1-1.48-.14c-4.06-.57-9.6-2.72-9.57-10.17,0,0-8.86,10.34,8,16a1.71,1.71,0,0,1-.27,3.33h-.5c-2.05,0-6.18-1.11-10.82-1.11s-9.8,1.14-13.83,5.74a16.71,16.71,0,0,0,4.53,4.64,14.62,14.62,0,0,0,8.4,2.65c3.39,0,7.42-1.14,12.15-4.27a15.64,15.64,0,0,0-1.54,4.57c-.07,3.16,2.05,5.71,3.73,8.13.06.13.16.27.23.4a47.47,47.47,0,0,1,3.93,6.88A17.45,17.45,0,0,1,148,52.59a8.39,8.39,0,0,1-1.65,5.54c-1.37,1.81-3.36,5-2.78,8.09.36,2.12,1.94,4.13,5.77,5.57A19.21,19.21,0,0,0,155.91,73h.23a19.34,19.34,0,0,0,6.62-1.18c9.33-3.49,5.3-10.61,3-13.66a8.06,8.06,0,0,1-1.64-5.54,17.39,17.39,0,0,1,1.54-5.65,48.42,48.42,0,0,1,3.93-6.88c.1-.13.17-.27.27-.4,1.68-2.42,3.8-5,3.7-8.13A16,16,0,0,0,172,27c4.71,3.13,8.74,4.27,12.13,4.27,8.59,0,13-7.29,13-7.29C193.08,19.34,187.91,18.2,183.24,18.2Z"/><path class="cls-1" d="M12.73,239.91c0,5.07-3.18,8.05-8,8.05H1.22a.85.85,0,0,1-.88-.88V232.66a.83.83,0,0,1,.88-.85H4.68C9.55,231.81,12.73,234.76,12.73,239.91Zm-1.59,0c0-4.43-2.37-6.72-6.46-6.72H2v13.39H4.68C8.77,246.58,11.14,244.27,11.14,239.91Z"/><path class="cls-1" d="M27.34,246.53a.72.72,0,0,1,0,1.43H18.69a.85.85,0,0,1-.88-.88V232.66a.83.83,0,0,1,.88-.85h8.42a.72.72,0,0,1,0,1.43H19.42v5.91h5.52a.69.69,0,1,1,0,1.38H19.42v6Z"/><path class="cls-1" d="M42.45,234.05a1.56,1.56,0,0,1,.3.81.64.64,0,0,1-.67.66.85.85,0,0,1-.76-.46,3.71,3.71,0,0,0-3.39-2c-2,0-3.28,1-3.28,2.59,0,1.4,1,2.23,2.66,2.88l1.45.58c2.79,1.06,4.71,2.07,4.71,4.54,0,2.89-2.82,4.43-5.47,4.43a5.7,5.7,0,0,1-5.22-2.88,1.62,1.62,0,0,1-.23-.67.68.68,0,0,1,.7-.74.88.88,0,0,1,.8.53,4.19,4.19,0,0,0,4,2.28c1.87,0,3.83-.85,3.83-2.95,0-1.82-1.48-2.42-3.3-3.11L36.94,240c-2.24-.85-3.88-2.12-3.88-4.24,0-2.45,2.17-4.06,4.85-4.06A5.15,5.15,0,0,1,42.45,234.05Z"/><path class="cls-1" d="M50.16,232.53v14.72a.83.83,0,0,1-.79.83.85.85,0,0,1-.83-.83V232.53a.83.83,0,0,1,.83-.84A.81.81,0,0,1,50.16,232.53Z"/><path class="cls-1" d="M77.11,245.81c0,.3-.24.6-.63.9a7,7,0,0,1-4.36,1.41,8.24,8.24,0,0,1,0-16.47A7,7,0,0,1,76.46,233c.46.33.65.58.65.93a.73.73,0,0,1-.74.73,1.43,1.43,0,0,1-.88-.43,5.38,5.38,0,0,0-3.34-1.09,6.72,6.72,0,0,0,0,13.43,5.4,5.4,0,0,0,3.37-1.09,1.51,1.51,0,0,1,.88-.43A.73.73,0,0,1,77.11,245.81Z"/><path class="cls-1" d="M97.39,239.88a8,8,0,1,1-8-8.23A8.17,8.17,0,0,1,97.39,239.88Zm-14.35,0a6.35,6.35,0,1,0,6.34-6.71A6.5,6.5,0,0,0,83,239.88Z"/><path class="cls-1" d="M122.86,232.5a1.17,1.17,0,0,1-.09.39l-4.57,14.56a.81.81,0,0,1-.83.6.82.82,0,0,1-.83-.6l-4.76-12.73-4.73,12.73a.83.83,0,0,1-.83.6.86.86,0,0,1-.85-.6l-4.54-14.56a1,1,0,0,1-.1-.39.79.79,0,0,1,.79-.76.82.82,0,0,1,.76.51l4,13.1,4.8-13.08a.72.72,0,0,1,.71-.53.73.73,0,0,1,.74.53l4.8,13.08,4-13.1a.77.77,0,0,1,.76-.51A.79.79,0,0,1,122.86,232.5Z"/><path class="cls-1" d="M147.34,236.77c0,3.09-2.22,5-5.81,5H138v5.45a.82.82,0,0,1-.81.8.8.8,0,0,1-.8-.8V232.66a.83.83,0,0,1,.87-.85h4.23C145.12,231.81,147.34,233.86,147.34,236.77Zm-1.57,0c0-2.24-1.61-3.55-4.29-3.55H138v7.2h3.44C144.16,240.42,145.77,239.22,145.77,236.77Z"/><path class="cls-1" d="M163.44,247.31a.69.69,0,0,1-.71.72.84.84,0,0,1-.62-.3l-4.69-5.93h-3.5v5.45a.82.82,0,0,1-.81.8.8.8,0,0,1-.81-.8V232.66a.83.83,0,0,1,.88-.85h4.22c3.6,0,5.81,2.05,5.81,5a4.72,4.72,0,0,1-4.13,4.87l4.16,5.12A.87.87,0,0,1,163.44,247.31Zm-9.52-6.89h3.43c2.68,0,4.3-1.2,4.3-3.65,0-2.24-1.62-3.55-4.3-3.55h-3.43Z"/><path class="cls-1" d="M184.07,239.88a8,8,0,1,1-8-8.23A8.16,8.16,0,0,1,184.07,239.88Zm-14.35,0a6.35,6.35,0,1,0,6.35-6.71A6.5,6.5,0,0,0,169.72,239.88Z"/><path class="cls-1" d="M201.77,239.91c0,5.07-3.19,8.05-8.05,8.05h-3.46a.85.85,0,0,1-.88-.88V232.66a.83.83,0,0,1,.88-.85h3.46C198.58,231.81,201.77,234.76,201.77,239.91Zm-1.59,0c0-4.43-2.38-6.72-6.46-6.72H191v13.39h2.73C197.8,246.58,200.18,244.27,200.18,239.91Z"/><path class="cls-1" d="M219.28,232.53v9.39a6.16,6.16,0,1,1-12.32,0v-9.39a.8.8,0,0,1,.78-.79.82.82,0,0,1,.84.79v9.36c0,3.14,1.82,4.85,4.54,4.85s4.55-1.71,4.55-4.85v-9.36a.81.81,0,0,1,.83-.79A.8.8,0,0,1,219.28,232.53Z"/><path class="cls-1" d="M237.74,245.81a1.27,1.27,0,0,1-.62.9,7,7,0,0,1-4.37,1.41,8.24,8.24,0,0,1,.05-16.47,7,7,0,0,1,4.29,1.38c.46.33.65.58.65.93a.73.73,0,0,1-.74.73,1.48,1.48,0,0,1-.88-.43,5.34,5.34,0,0,0-3.34-1.09,6.72,6.72,0,0,0,0,13.43,5.36,5.36,0,0,0,3.37-1.09,1.54,1.54,0,0,1,.88-.43A.73.73,0,0,1,237.74,245.81Z"/><path class="cls-1" d="M253.43,232.5a.72.72,0,0,1-.72.72h-4.2v14a.81.81,0,0,1-.78.83.82.82,0,0,1-.81-.83v-14H242.7a.71.71,0,0,1,0-1.41h10A.73.73,0,0,1,253.43,232.5Z"/><path class="cls-1" d="M266.79,234.05a1.56,1.56,0,0,1,.3.81.64.64,0,0,1-.67.66.84.84,0,0,1-.76-.46,3.72,3.72,0,0,0-3.39-2c-2,0-3.28,1-3.28,2.59,0,1.4,1,2.23,2.65,2.88l1.46.58c2.79,1.06,4.7,2.07,4.7,4.54,0,2.89-2.81,4.43-5.46,4.43a5.7,5.7,0,0,1-5.22-2.88,1.62,1.62,0,0,1-.23-.67.68.68,0,0,1,.69-.74.9.9,0,0,1,.81.53,4.19,4.19,0,0,0,4,2.28c1.87,0,3.83-.85,3.83-2.95,0-1.82-1.48-2.42-3.3-3.11l-1.62-.63c-2.23-.85-3.87-2.12-3.87-4.24,0-2.45,2.17-4.06,4.84-4.06A5.16,5.16,0,0,1,266.79,234.05Z"/></g></g></svg>