<svg width="331" height="412" viewBox="0 0 331 412" fill="none" xmlns="http://www.w3.org/2000/svg">
<path d="M178.78 194.43C172.523 194.445 166.28 195.003 160.12 196.1C162.529 195.671 164.973 195.467 167.42 195.49H168C184.63 195.66 200.56 203.32 210.15 215.55C210.76 216.34 211.38 217.22 212 218.1C212.715 219.111 213.36 220.17 213.93 221.27C214.057 221.425 214.149 221.606 214.2 221.8C214.873 222.897 215.462 224.043 215.96 225.23C216.081 225.649 216.228 226.059 216.4 226.46C216.826 227.239 217.162 228.064 217.4 228.92C221.273 240.121 221.025 252.336 216.701 263.371C212.377 274.406 204.259 283.537 193.807 289.125C183.355 294.712 171.253 296.39 159.675 293.856C148.097 291.322 137.803 284.742 130.64 275.3C130.03 274.59 129.5 273.8 128.97 273.1C124.998 267.924 122.123 261.994 120.52 255.67C119.473 251.145 119.029 246.501 119.2 241.86C119.2 236.58 117.62 228.22 115.42 223.47C113.951 220.261 112.183 217.197 110.14 214.32C105.232 207.743 99.0359 202.235 91.9299 198.13C82.5099 192.67 70.9299 186.13 67.6399 185.19C51.5399 180.79 58.2199 155.89 74.3299 160.29C76.1846 160.67 78.094 160.701 79.9599 160.38C83.9979 159.898 87.9777 159.013 91.8399 157.74C98.8399 155.74 106.01 152.99 112.16 148.94C119.16 144.54 137.42 145.68 141.73 162.22C152.03 159.32 166.46 167.15 166.46 167.15C166.46 167.15 159.33 175.78 151.46 175.78C157.79 188.53 177.24 186.78 187.27 176.83C187.19 176.57 187.1 176.3 187.01 176.04C184.1 166.04 190.53 155.54 194.58 150.04C197.236 146.61 198.519 142.314 198.18 137.99C197.664 133.258 196.356 128.647 194.31 124.35C191.546 118.218 188.219 112.356 184.37 106.84L184.1 106.4L183.75 105.87L181.99 103.49C177.86 97.4898 173.19 90.8198 173.37 82.4898C173.531 81.2175 173.765 79.9554 174.07 78.7098C165.45 83.0198 157.07 85.3098 149.07 85.3098C139.5 85.3386 130.211 82.0763 122.76 76.0698C87.3531 86.5382 56.2815 108.177 34.1837 137.756C12.0859 167.335 0.147216 203.268 0.149903 240.19C0.149903 329.19 68.0799 402.09 154.93 410.37C161.84 411.285 168.824 411.52 175.78 411.07H176.49L176.93 410.98C182.953 410.615 188.947 409.88 194.88 408.78C209.49 406.05 222.51 401.39 232.72 395.78C250.317 386.649 265.067 372.857 275.355 355.91C285.644 338.964 291.077 319.515 291.06 299.69C291.06 239.83 238.61 194.43 178.78 194.43Z" fill="#36628B"/>
<path d="M294.16 47.69C282.11 47.69 271.29 50.6 265.92 50.6H264.6C259.85 50.07 259.23 43.38 263.81 41.88C307.89 27.1 284.66 0 284.66 0C284.84 19.53 270.32 25.17 259.66 26.66C258.342 26.913 257.002 27.0303 255.66 27.01C251.128 26.9394 246.662 25.9174 242.55 24.01C242.501 24.0161 242.451 24.0112 242.405 23.9956C242.358 23.98 242.315 23.9542 242.28 23.92C236.209 21.246 229.643 19.883 223.01 19.92H222.49C215.859 19.9014 209.296 21.2636 203.22 23.92C203.13 24.01 203.13 24.01 203.04 24.01C198.9 25.9263 194.402 26.9485 189.84 27.01C188.541 27.0236 187.245 26.9063 185.97 26.66C175.37 25.17 160.85 19.53 160.94 0C160.94 0 137.71 27.1 181.8 41.88C186.37 43.38 185.8 50.07 181.09 50.6H179.77C174.4 50.6 163.58 47.69 151.44 47.69C139.3 47.69 125.74 50.69 115.19 62.74C118.308 67.5295 122.342 71.6553 127.06 74.88C133.496 79.4253 141.18 81.8703 149.06 81.88C157.95 81.88 168.51 78.88 180.92 70.71C180.21 71.85 176.92 79.33 176.87 82.71C176.69 90.98 182.24 97.71 186.64 104C186.81 104.35 187.08 104.7 187.25 105.06C191.186 110.758 194.631 116.78 197.55 123.06C199.748 127.723 201.145 132.723 201.68 137.85C202.007 143.048 200.48 148.193 197.37 152.37C193.76 157.12 188.57 165.57 190.07 173.57C191.07 179.12 195.17 184.4 205.2 188.18C210.757 190.208 216.625 191.25 222.54 191.26H223.15C229.065 191.243 234.931 190.201 240.49 188.18C264.95 179.03 254.39 160.37 248.32 152.37C245.112 148.223 243.571 143.026 244 137.8C244.491 132.68 245.844 127.68 248 123.01C250.919 116.73 254.364 110.708 258.3 105.01C258.56 104.65 258.74 104.3 259 103.95C263.4 97.61 268.95 90.95 268.68 82.66C268.59 79.31 265.43 71.83 264.68 70.66C277 78.84 287.56 81.83 296.45 81.83C318.97 81.83 330.45 62.74 330.45 62.74C320 50.68 306.39 47.69 294.16 47.69Z" fill="#36628B"/>
</svg>
