<?xml version="1.0" encoding="utf-8"?>
<!-- Generator: Adobe Illustrator 26.0.1, SVG Export Plug-In . SVG Version: 6.00 Build 0)  -->
<svg version="1.1" id="Layer_1" xmlns="http://www.w3.org/2000/svg" xmlns:xlink="http://www.w3.org/1999/xlink" x="0px" y="0px"
	 viewBox="0 0 100 100" style="enable-background:new 0 0 100 100;" xml:space="preserve">
<g>
	<path d="M66.2,10c0.4,3.5,0.2,7-1.1,10.3c-1.9,4.7-5.5,7.6-10.1,9.4c-2.3,0.9-4.7,1.4-7.2,1.4c0.1-2.2,0.2-4.3,0.8-6.4
		c2.2-8.2,7.7-12.8,15.8-14.5c0.4-0.1,0.8-0.1,1.1-0.2C65.8,10,66,10,66.2,10z M51.3,27.6c8.1-1.6,12.2-7.9,11.9-14
		C56.1,15.5,51.9,21.3,51.3,27.6z"/>
	<path d="M80,40.1c-0.7,0.4-1.4,0.7-2.1,1.1c-5.2,3-7.8,7.6-7.3,13.5c0.5,6.1,3.9,10.2,9.6,12.4c1.3,0.5,1.6,1.1,1.1,2.4
		c-1.4,3.7-3.2,7.1-5.5,10.3c-2,2.9-4.4,5.6-7,8c-2.3,2.1-5,2.7-8,2c-1.4-0.4-2.9-0.9-4.1-1.7c-2.3-1.5-4.8-1.7-7.4-1.3
		c-1.8,0.3-3.4,0.8-5,1.7c-3.7,2.1-7.5,1.6-10.8-1c-2.8-2.3-5.1-5.1-6.9-8.2c-1.8-3.1-3.5-6.3-5.1-9.5c-1.3-2.6-1.8-5.4-2.3-8.2
		c-0.8-4.6-0.9-9.3,0.2-13.9c1.7-6.6,5.3-11.9,11.4-15.3c2.7-1.5,5.7-1.9,8.8-1.6c3.5,0.4,6.7,1.7,9.7,3.4c0.5,0.3,0.8,0.3,1.3,0
		c2.9-1.7,6-2.9,9.4-3.6c4.5-0.8,8.8-0.4,12.8,1.9C75.9,34.4,78.3,36.9,80,40.1z M75.6,38.9c-0.1-0.1-0.2-0.3-0.3-0.4
		c-4.4-4.8-9.8-6-15.9-4.5c-3.2,0.8-6.1,2.2-8.8,3.9c-0.5,0.3-0.8,0.3-1.3,0c-2.4-1.6-5-2.8-7.9-3.5c-2.9-0.7-5.7-0.9-8.5,0.5
		c-5.4,2.6-8.7,7.1-10.4,12.8c-1,3.5-1.2,7.1-0.8,10.7c0.4,3.8,1.1,7.5,2.8,11c1.4,2.8,2.9,5.6,4.5,8.3c1.7,2.9,3.7,5.6,6.4,7.7
		c2.4,1.8,4.7,2.2,7.3,0.6c2-1.2,4.2-1.8,6.5-2.1c3.2-0.5,6.2-0.1,9,1.7c0.5,0.3,1,0.6,1.6,0.8c2.7,1.1,5.2,1,7.4-1.2
		c2.8-2.8,5.3-5.7,7.3-9c1.3-2,2.3-4.2,3.5-6.3C65.4,64.4,63.5,46.5,75.6,38.9z"/>
</g>
</svg>
