<?xml version="1.0" ?><svg viewBox="0 0 60 60" xmlns="http://www.w3.org/2000/svg"><defs><style>.a{fill:#3db9e3;}.b{fill:#343840;}.c{fill:#2ca651;}.d{fill:#464c59;}.e,.f{fill:none;stroke-miterlimit:10;}.e{stroke:#1e3064;stroke-width:1.75px;}.f{stroke:#fffb01;}.g{fill:#4db678;}.h{fill:#8d8d93;}.i{fill:#dedce0;}</style></defs><title/><circle class="a" cx="30" cy="30" r="30"/><rect class="b" height="37" rx="2" ry="2" width="52" x="5" y="11"/><polygon class="c" points="11 15 47 0 52 15 11 15"/><rect class="d" height="37" rx="2" ry="2" width="49" x="5" y="14"/><line class="e" x1="7" x2="9" y1="17" y2="17"/><line class="f" x1="7" x2="9" y1="17" y2="17"/><line class="e" x1="11" x2="13" y1="17" y2="17"/><line class="f" x1="11" x2="13" y1="17" y2="17"/><line class="e" x1="15" x2="17" y1="17" y2="17"/><line class="f" x1="15" x2="17" y1="17" y2="17"/><line class="e" x1="19" x2="21" y1="17" y2="17"/><line class="f" x1="19" x2="21" y1="17" y2="17"/><line class="e" x1="23" x2="25" y1="17" y2="17"/><line class="f" x1="23" x2="25" y1="17" y2="17"/><line class="e" x1="27" x2="29" y1="17" y2="17"/><line class="f" x1="27" x2="29" y1="17" y2="17"/><line class="e" x1="31" x2="33" y1="17" y2="17"/><line class="f" x1="31" x2="33" y1="17" y2="17"/><line class="e" x1="35" x2="37" y1="17" y2="17"/><line class="f" x1="35" x2="37" y1="17" y2="17"/><line class="e" x1="39" x2="41" y1="17" y2="17"/><line class="f" x1="39" x2="41" y1="17" y2="17"/><line class="e" x1="43" x2="45" y1="17" y2="17"/><line class="f" x1="43" x2="45" y1="17" y2="17"/><line class="e" x1="47" x2="49" y1="17" y2="17"/><line class="f" x1="47" x2="49" y1="17" y2="17"/><line class="e" x1="51" x2="53" y1="17" y2="17"/><line class="f" x1="51" x2="53" y1="17" y2="17"/><line class="e" x1="7" x2="9" y1="48" y2="48"/><line class="f" x1="7" x2="9" y1="48" y2="48"/><line class="e" x1="11" x2="13" y1="48" y2="48"/><line class="f" x1="11" x2="13" y1="48" y2="48"/><line class="e" x1="15" x2="17" y1="48" y2="48"/><line class="f" x1="15" x2="17" y1="48" y2="48"/><line class="e" x1="19" x2="21" y1="48" y2="48"/><line class="f" x1="19" x2="21" y1="48" y2="48"/><line class="e" x1="23" x2="25" y1="48" y2="48"/><line class="f" x1="23" x2="25" y1="48" y2="48"/><line class="e" x1="27" x2="29" y1="48" y2="48"/><line class="f" x1="27" x2="29" y1="48" y2="48"/><line class="e" x1="31" x2="33" y1="48" y2="48"/><line class="f" x1="31" x2="33" y1="48" y2="48"/><line class="e" x1="35" x2="37" y1="48" y2="48"/><line class="f" x1="35" x2="37" y1="48" y2="48"/><line class="e" x1="39" x2="41" y1="48" y2="48"/><line class="f" x1="39" x2="41" y1="48" y2="48"/><line class="e" x1="43" x2="45" y1="48" y2="48"/><line class="f" x1="43" x2="45" y1="48" y2="48"/><line class="e" x1="47" x2="49" y1="48" y2="48"/><line class="f" x1="47" x2="49" y1="48" y2="48"/><line class="e" x1="51" x2="53" y1="48" y2="48"/><line class="f" x1="51" x2="53" y1="48" y2="48"/><circle class="g" cx="43.5" cy="7.5" r="2.5"/><path class="b" d="M43,28H54a0,0,0,0,1,0,0V38a0,0,0,0,1,0,0H43a1,1,0,0,1-1-1V29A1,1,0,0,1,43,28Z"/><circle class="h" cx="45.5" cy="33" r="1.5"/><circle class="h" cx="50.5" cy="33" r="2.5"/><circle class="i" cx="50.5" cy="33" r="1"/></svg>