<svg width="512" height="512" xmlns="http://www.w3.org/2000/svg">
 <title/>

 <g>
  <title>background</title>
  <rect fill="none" id="canvas_background" height="402" width="582" y="-1" x="-1"/>
 </g>
 <g>
  <title>Layer 1</title>
  <path fill="#36648b" id="svg_1" d="m476,88l-440,0a7.9979,7.9979 0 0 0 -8,8l0,240a7.9979,7.9979 0 0 0 8,8l440,0a7.9979,7.9979 0 0 0 8,-8l0,-240a7.9979,7.9979 0 0 0 -8,-8zm-8,240l-424,0l0,-224l424,0l0,224z"/>
  <path fill="#36648b" id="svg_2" d="m76,272a24.0262,24.0262 0 0 1 24,24a7.9979,7.9979 0 0 0 8,8l76,0a8,8 0 0 0 0,-16l-68.8047,0a40.119,40.119 0 0 0 -31.1953,-31.1953l0,-81.6094a40.119,40.119 0 0 0 31.1953,-31.1953l68.8047,0a8,8 0 0 0 0,-16l-76,0a7.9979,7.9979 0 0 0 -8,8a24.0262,24.0262 0 0 1 -24,24a7.9979,7.9979 0 0 0 -8,8l0,96a7.9979,7.9979 0 0 0 8,8z"/>
  <path fill="#36648b" id="svg_3" d="m328.0039,144l68.8008,0a40.119,40.119 0 0 0 31.1953,31.1953l0,81.6094a40.119,40.119 0 0 0 -31.1953,31.1953l-68.8008,0a8,8 0 1 0 0,16l75.9961,0a7.9979,7.9979 0 0 0 8,-8a24.0262,24.0262 0 0 1 24,-24a7.9979,7.9979 0 0 0 8,-8l0,-96a7.9979,7.9979 0 0 0 -8,-8a24.0262,24.0262 0 0 1 -24,-24a7.9979,7.9979 0 0 0 -8,-8l-75.9961,0a8,8 0 0 0 0,16z"/>
  <path fill="#36648b" id="svg_4" d="m256,284a68,68 0 1 0 -68,-68a68.0785,68.0785 0 0 0 68,68zm0,-120a52,52 0 1 1 -52,52a52.06,52.06 0 0 1 52,-52z"/>
  <path fill="#36648b" id="svg_5" d="m476,368l-440,0a8,8 0 0 0 0,16l440,0a8,8 0 0 0 0,-16z"/>
  <path fill="#36648b" id="svg_6" d="m476,408l-440,0a8,8 0 0 0 0,16l440,0a8,8 0 0 0 0,-16z"/>
 </g>
</svg>