<svg width="550" height="343" viewBox="0 0 550 343" fill="none" xmlns="http://www.w3.org/2000/svg">
<mask id="mask0_11_431" style="mask-type:alpha" maskUnits="userSpaceOnUse" x="0" y="22" width="550" height="321">
<ellipse cx="275" cy="182.5" rx="275" ry="160.5" fill="#C4C4C4"/>
</mask>
<g mask="url(#mask0_11_431)">
<path d="M1097.79 218.471H-602.99V478.861H1097.79V218.471Z" fill="url(#paint0_linear_11_431)"/>
<path fill-rule="evenodd" clip-rule="evenodd" d="M-603 218.471V244.161C-512.89 248.851 -478.55 270.251 -413.56 271.021C-329.06 272.021 -253.01 253.561 -152.22 253.561C-56.5 253.561 58.94 281.721 149.78 281.721C234.78 281.721 354.13 267.021 434.78 267.021C647.34 267.021 673.78 297.191 981.11 297.191H1097.78V218.471H-603Z" fill="#BACC47"/>
<path fill-rule="evenodd" clip-rule="evenodd" d="M43.1992 218.471C55.0892 226.171 132.329 231.821 173.109 231.091C224.799 230.161 271.339 226.891 332.999 226.891C391.549 226.891 462.199 233.651 517.759 233.651C569.759 233.651 642.759 230.121 692.139 230.121C822.139 230.121 838.359 237.371 1026.39 237.371H1097.78V218.471H43.1992Z" fill="#90961E"/>
</g>
<path d="M207.041 49.3376C202.58 59.0034 207.041 73.8737 207.041 73.8737H241.243C241.243 73.8737 246.829 57.1233 241.243 49.3376C233.457 38.4848 211.502 39.6719 207.041 49.3376Z" fill="#9A6247" stroke="#9A6247"/>
<path d="M379.368 206.267C380.425 214.495 380.305 222.832 379.011 231.026C377.331 240.038 372.572 248.142 369.613 256.47H395.071C394.372 252.469 393.897 247.993 393.584 245.614C393.168 242.804 395.324 241.599 396.856 240.99C400.529 239.502 400.083 238.774 398.045 230.744C395.549 220.814 394.138 210.643 393.837 200.408C393.391 191.293 395.86 179.352 397.48 164.942C397.852 161.656 396.425 156.63 393.986 154.533C392.395 153.21 387.354 148.585 385.064 146.8C381.733 144.183 378.759 145.016 375.353 146.384C372.662 147.47 369.405 148.734 370.119 153.106C372.305 167.203 377.554 188.363 379.368 206.267Z" fill="#9A5F42"/>
<path d="M344.767 202.016H343.607C342.763 202.016 341.954 201.68 341.357 201.084C340.76 200.487 340.425 199.677 340.425 198.833V177.584H347.949V198.833C347.949 199.677 347.614 200.487 347.017 201.084C346.42 201.68 345.611 202.016 344.767 202.016V202.016Z" fill="#935A3E"/>
<path d="M355.041 207.965H353.881C353.037 207.965 352.227 207.63 351.63 207.033C351.034 206.436 350.698 205.627 350.698 204.783V183.533H358.223V204.783C358.223 205.627 357.888 206.436 357.291 207.033C356.694 207.63 355.885 207.965 355.041 207.965V207.965Z" fill="#935A3E"/>
<path d="M367.607 207.965H366.447C366.029 207.965 365.615 207.883 365.229 207.723C364.843 207.563 364.492 207.328 364.197 207.033C363.901 206.737 363.667 206.386 363.507 206C363.347 205.614 363.265 205.2 363.265 204.783V183.533H370.789V204.783C370.789 205.627 370.454 206.436 369.857 207.033C369.26 207.63 368.451 207.965 367.607 207.965V207.965Z" fill="#935A3E"/>
<path d="M379.365 204.99H378.205C377.361 204.99 376.551 204.655 375.954 204.058C375.358 203.461 375.023 202.652 375.023 201.808V180.558H382.547V201.808C382.547 202.652 382.212 203.461 381.615 204.058C381.018 204.655 380.209 204.99 379.365 204.99V204.99Z" fill="#935A3E"/>
<path d="M396.99 159.326C380.885 135.935 374.312 137.021 356.84 144.694C349.91 147.668 333.389 155.415 327.961 157.973C322.013 160.769 321.299 164.055 324.154 170.434C329.567 182.569 342.698 194.777 365.672 193.959C378.58 193.498 391.086 186.167 396.246 177.602C401.406 169.036 400.112 163.847 396.99 159.326Z" fill="#935A3E"/>
<path d="M192.568 256.151C193.654 253.177 191.989 247.913 193.208 245.147C194.576 242.009 197.981 242.173 199.513 238.723C203.305 230.202 196.212 215.688 198.978 206.959C200.613 201.829 204.837 197.665 206.725 192.55C208.866 186.766 208.42 181.1 208.45 174.944C208.45 170.616 195.186 167.018 192.093 166.616C181.683 165.248 184.747 185.1 185.401 193.383C185.892 199.539 187.914 202.959 187.066 209.279C186.385 215.079 185.094 220.791 183.215 226.321C180.375 234.157 172.241 245.652 172.345 254.277C172.344 254.917 172.414 255.556 172.553 256.18L192.568 256.151Z" fill="#9A5F42"/>
<path d="M481.942 196.452C483.786 182.281 479.92 169.462 467.652 161.18C463.012 158.057 457.718 157.67 452.96 155.231C447.755 152.525 441.762 146.19 438.223 141.536C429.926 130.651 432.275 114.769 432.439 102.04C432.632 88.2402 432.751 75.0651 425.42 62.7673C420.765 54.9603 408.304 43.4357 397.909 46.5287C389.909 48.8931 398.623 50.2167 401.939 50.6776C408.084 51.5763 413.724 54.5832 417.895 59.1835C439.011 82.0095 419.1 115.081 432.766 140.168C436.171 146.413 441.926 151.038 447.235 155.648C452.082 159.871 455.28 165.626 459.131 170.89C464.529 178.325 469.005 186.4 473.763 194.221C476.217 198.147 482.849 207.263 481.942 196.452Z" fill="#9A6247"/>
<path d="M384.226 155.477C388.828 156.367 396.337 166.179 405.245 176.628C415.351 188.384 418.702 193.342 418.702 216.943C418.702 226.442 415.243 233.968 413.75 237.887C412.256 241.805 408.273 246.199 406.2 255.773H427.974C427.974 254.036 427.516 247.832 427.422 246.095C427.193 242.191 427.704 242.176 430.396 239.95C433.841 237.085 432.293 235.244 431.822 229.559C430.92 218.798 427.61 197.81 428.162 191.665C428.794 184.584 430.853 177.133 428.431 171.878C424.946 164.175 419.011 154.823 417.666 144.641C414.974 125.745 420.747 109.017 424.071 89.6168C425.915 78.8554 426.937 67.3517 420.343 55.3138C393.166 31.9734 376.589 45.9476 361.195 45.0422C344.438 49.817 327.042 60.3464 296.509 60.9698C260.902 61.7565 239.873 65.3419 220.67 48.33C203.176 64.6581 179.593 53.2297 164.911 48.33C151.831 56.8798 147.999 63.3355 145.576 80.3014C143.329 96.0353 141.4 101.476 151.411 108.186C168.905 119.927 177.249 128.626 181.986 148.947C185.862 165.571 193.84 186.44 210.015 188.369C225.921 190.269 240.495 174.209 261.85 175.693C278.214 176.851 292.801 183.115 310.698 181.749C330.534 180.265 342.483 172.843 357.353 165.793C364.041 162.661 378.897 154.452 384.226 155.477Z" fill="#9A6247"/>
<path d="M254.034 139.633C253.032 133.141 251.53 123.689 249.48 117.404C248.508 114.457 243.666 103.382 239.46 108.316C238.291 109.731 241.267 117.521 241.404 119.78C241.797 124.413 241.45 129.069 240.371 133.621C237.957 143.307 233.585 152.539 232.295 162.446C232.01 164.223 231.853 166.014 231.824 167.808C235.753 167.231 241.228 164.854 245.208 165.061C254.034 157.626 258.898 159.522 265.283 160.6C263.901 155.77 256.585 155.863 254.034 139.633Z" fill="#935A3E"/>
<path d="M386.479 157.995C385.318 156.924 383.948 156.168 382.478 155.787C377.143 154.735 362.472 162.93 355.803 166.161C341.132 173.155 329.221 180.58 309.589 182.077C291.756 183.485 277.392 177.186 261.174 176.06C239.994 174.578 225.536 190.583 209.784 188.701C193.78 186.775 181.776 171.822 177.895 155.239C174.12 138.937 170.719 126.281 160.449 115.819C168.572 99.043 180.042 136.299 185.79 144.865C191.859 153.86 200.368 164.264 213.799 165.138C228.257 166.087 249.157 154.216 265.495 154.216C278.046 154.216 300.172 167.035 322.113 164.901C345.813 162.619 364.139 150.081 375.462 147.636C378.517 150.674 382.064 154.068 386.479 157.995Z" fill="#ECDDC6"/>
<path d="M172.984 49.0723C169.735 49.9944 166.616 51.3287 163.705 53.0426C149.132 61.6823 135.154 81.46 132.477 98.4271C130.009 114.19 144.032 118.933 155.095 125.655C165.129 131.373 172.976 140.266 177.401 150.934C183.126 148.436 179.438 135.648 178.888 132.495C175.75 116.971 177.163 104.702 180.88 89.49C183.676 77.8762 183.096 58.1729 172.984 49.0723Z" fill="#915B41"/>
<path d="M209.684 190.537C211.35 199.459 216.822 207.281 216.302 216.501C215.993 223.963 214.795 231.361 212.733 238.539C211.647 242.048 205.848 250.732 203.81 256.472H224.391C224.555 251.654 223.573 245.885 224.123 243.595C224.431 242.386 224.987 241.254 225.755 240.271C226.522 239.288 227.486 238.476 228.584 237.884C232.198 236.13 227.425 221.14 226.503 214.092C225.491 206.359 229.804 201.363 230.964 194.032C232.599 184.247 232.927 174.299 234.994 164.588C236.956 155.413 240.763 146.744 242.429 137.494C244.064 127.933 244.392 116.245 242.295 109.954C240.347 104.006 234.086 105.82 231.231 108.051C225.729 112.393 225.581 119.784 221.804 125.434C217.699 131.576 208.42 133.687 205.134 140.305C201.848 146.922 204.688 154.045 205.996 161.555C207.781 171.116 207.885 180.975 209.684 190.537Z" fill="#9A6247"/>
<path d="M212.731 239.25C212.662 239.264 212.591 239.264 212.522 239.25C212.433 239.224 212.35 239.181 212.278 239.123C212.206 239.064 212.147 238.992 212.104 238.91C212.061 238.828 212.035 238.738 212.027 238.645C212.02 238.553 212.032 238.46 212.061 238.372C214.111 231.249 215.294 223.905 215.586 216.498C215.898 211.041 214.099 206.089 212.136 200.899C210.8 197.595 209.751 194.182 208.998 190.698C208.061 185.716 207.511 180.601 207.095 175.634C206.663 171.039 206.217 166.296 205.414 161.716C205.147 160.228 204.82 158.741 204.492 157.18C203.199 151.128 201.964 145.403 204.596 140.034C204.636 139.951 204.692 139.877 204.761 139.815C204.83 139.754 204.91 139.706 204.997 139.676C205.084 139.645 205.176 139.633 205.268 139.638C205.36 139.643 205.45 139.667 205.533 139.707C205.616 139.747 205.691 139.803 205.753 139.872C205.814 139.94 205.861 140.021 205.892 140.108C205.922 140.195 205.935 140.287 205.93 140.379C205.924 140.471 205.901 140.561 205.86 140.644C203.437 145.581 204.611 151.053 205.86 156.883C206.188 158.37 206.515 159.857 206.782 161.463C207.6 166.117 208.046 170.891 208.478 175.5C208.954 180.422 209.429 185.523 210.351 190.371C211.099 193.771 212.129 197.104 213.429 200.334C215.333 205.449 217.311 210.743 216.984 216.513C216.675 224.031 215.467 231.484 213.385 238.714C213.349 238.863 213.266 238.996 213.148 239.092C213.03 239.189 212.883 239.244 212.731 239.25V239.25Z" fill="#935A3E"/>
<path d="M386.138 157.582C385.982 157.578 385.832 157.526 385.707 157.433C364.888 141.076 359.906 133.328 355.282 118.384C355.226 118.206 355.244 118.014 355.33 117.849C355.417 117.685 355.565 117.561 355.743 117.506C355.92 117.451 356.112 117.469 356.277 117.555C356.441 117.641 356.565 117.79 356.62 117.967C361.23 132.838 365.959 140.065 386.569 156.318C386.716 156.435 386.811 156.605 386.833 156.792C386.855 156.978 386.803 157.166 386.688 157.314C386.623 157.398 386.54 157.467 386.444 157.513C386.349 157.559 386.244 157.583 386.138 157.582Z" fill="#935A3E"/>
<path d="M144.836 114.95C141.387 114.475 131.453 114.757 131.453 119.486C131.453 124.824 141.193 126.222 144.836 126.222C149.03 126.222 158.071 124.854 158.086 120.274C158.145 116.155 148.153 115.411 144.836 114.95Z" fill="#422415"/>
<path d="M122.431 48.4482C115.754 46.0689 110.356 41.697 104.467 40.433C98.8923 39.1861 93.0734 39.6102 87.7381 41.6524C87.3813 41.7937 87.06 42.0122 86.7975 42.2923C86.535 42.5723 86.3377 42.9069 86.2197 43.2721C86.1017 43.6374 86.066 44.0243 86.1151 44.4049C86.1643 44.7856 86.2972 45.1508 86.504 45.4741C90.1918 51.9427 94.5338 56.9838 101.582 60.3445C108.631 63.7052 116.185 62.3668 122.624 59.3481C126.862 57.296 129.732 51.0356 122.431 48.4482Z" fill="#935A3E"/>
<path d="M128.886 0.680236C127.833 -0.177777 122.211 2.6057 119.709 14.2858C118.295 20.8973 120.581 26.3277 121.943 29.7878C122.876 32.1003 124.108 34.2808 125.607 36.2738C127.416 38.4854 130.357 39.8729 132.26 39.417C134.489 38.8907 137.272 36.8695 136.809 33.8902C136.605 32.6215 133.748 29.0159 132.797 27.4703C130.286 23.7678 128.423 19.6645 127.29 15.3366C124.954 5.38104 130.41 1.96039 128.886 0.680236Z" fill="#EDEDED"/>
<path d="M166.419 59.2895C172.858 62.2636 180.62 63.4978 187.46 60.2858C194.301 57.0738 198.866 51.9436 202.539 45.4155C202.746 45.0921 202.879 44.727 202.928 44.3464C202.977 43.9657 202.941 43.5788 202.823 43.2136C202.705 42.8483 202.508 42.5137 202.245 42.2336C201.983 41.9536 201.662 41.7351 201.305 41.5938C195.97 39.5516 190.151 39.1275 184.576 40.3745C178.628 41.6384 173.289 46.0103 166.612 48.3895C159.311 51.0365 162.196 57.2969 166.419 59.2895Z" fill="#9A5F42"/>
<path d="M166.419 59.2907C172.858 62.2648 180.62 63.499 187.46 60.287C194.3 57.075 198.866 51.9447 202.539 45.4166C202.745 45.0932 202.878 44.7282 202.927 44.3475C202.976 43.9668 202.941 43.58 202.823 43.2147C202.705 42.8495 202.507 42.5148 202.245 42.2348C201.982 41.9547 200.21 42.378 199.853 42.2367C193.197 40.0504 189.814 43.1001 184.239 44.347C178.29 45.611 171.585 45.9495 164.908 48.3287C157.606 50.9757 162.195 57.2981 166.419 59.2907Z" fill="#ECDDC6"/>
<path d="M164.856 16.847C163.151 20.9834 160.754 24.799 157.768 28.1304C156.584 29.505 153.302 32.7231 152.93 33.9529C152.07 36.8428 154.527 39.2535 156.694 40.0409C158.518 40.7485 161.619 39.7688 163.709 37.8205C165.463 36.0471 166.976 34.0519 168.212 31.8859C170.026 28.6401 173.022 23.5664 172.519 16.8135C171.6 4.91437 166.404 1.40039 165.244 2.10895C163.591 3.13893 168.538 7.26205 164.856 16.847Z" fill="#E9E9E9"/>
<path d="M120.923 53.5334C114.648 50.5594 109.845 46.0982 104.224 44.1205C98.93 42.2415 93.2473 41.73 87.703 42.6334C87.383 42.673 87.0759 42.7828 86.8033 42.9551C86.5308 43.1273 86.2998 43.3578 86.1268 43.6298C86.0322 44.2566 86.1695 44.8964 86.5133 45.4291C90.1863 51.9125 94.5135 56.9536 101.562 60.2994C108.611 63.6453 116.18 62.307 122.619 59.318C123.411 58.9386 124.139 58.4367 124.775 57.831C124.701 56.3737 123.615 54.8718 120.923 53.5334Z" fill="#ECDDC6"/>
<path d="M169.84 65.4287C169.112 57.3689 165.602 55.1533 164.427 49.6512C163.712 45.2725 162.463 40.9978 160.71 36.9222C158.36 31.7324 151.55 31.7324 144.531 31.7324C137.512 31.7324 130.686 31.7324 128.337 36.9222C126.584 40.9978 125.335 45.2725 124.619 49.6512C123.459 55.1533 119.935 57.3689 119.207 65.4287C118.537 72.8639 122.359 85.3104 124.084 90.8868C125.259 94.7085 127.385 99.809 127.98 103.794C129.363 112.716 126.85 118.784 138.3 121.133C142.43 121.688 146.616 121.688 150.747 121.133C162.197 118.784 159.669 112.716 161.067 103.794C161.661 99.8685 163.788 94.7085 164.963 90.8868C166.688 85.2509 170.509 72.8639 169.84 65.4287Z" fill="#9A6247"/>
<path d="M157.224 102.116C155.334 101.446 149.138 101.166 144.833 101.119V101.228V101.119C140.527 101.119 134.331 101.446 132.458 102.116C129.098 103.332 129.063 108.833 129.308 111.7C129.518 113.617 129.903 116.375 131.566 117.84C132.277 118.412 133.065 118.904 133.911 119.305C133.98 119.323 134.053 119.323 134.121 119.305C135.049 119.554 136.099 119.772 137.219 119.991C139.737 120.338 142.285 120.489 144.833 120.443V120.349V120.443C147.38 120.489 149.928 120.338 152.446 119.991C153.566 119.772 154.616 119.554 155.544 119.305C155.613 119.323 155.686 119.323 155.754 119.305C156.6 118.904 157.388 118.412 158.1 117.84C159.762 116.282 160.147 113.617 160.357 111.7C160.602 108.833 160.567 103.332 157.224 102.116Z" fill="#422415"/>
<path d="M157.577 106.644C156.283 105.067 154.603 105.424 153.115 106.54C152.605 106.968 152.197 107.506 151.921 108.114C151.646 108.721 151.51 109.382 151.524 110.049C151.985 111.967 154.974 111.417 156.432 110.778C156.838 110.649 157.206 110.421 157.502 110.115C157.798 109.808 158.012 109.432 158.126 109.021C158.24 108.611 158.249 108.178 158.153 107.763C158.057 107.348 157.859 106.963 157.577 106.644V106.644Z" fill="#9A6247"/>
<path d="M131.349 106.644C132.643 105.067 134.324 105.424 135.811 106.54C136.321 106.968 136.729 107.506 137.004 108.114C137.28 108.721 137.416 109.382 137.402 110.049C136.941 111.967 133.952 111.417 132.494 110.778C132.088 110.649 131.72 110.421 131.424 110.115C131.128 109.808 130.914 109.432 130.8 109.021C130.686 108.611 130.677 108.178 130.773 107.763C130.869 107.348 131.067 106.963 131.349 106.644Z" fill="#9A6247"/>
<path d="M128.181 63.9438C127.573 63.1751 126.754 62.6008 125.824 62.2917C124.894 61.9826 123.893 61.9521 122.946 62.204C119.972 62.9178 120.686 66.5462 122.143 67.8696C123.076 68.7304 124.31 69.1898 125.578 69.1485C126.723 69.1485 127.199 69.2377 127.348 69.5202C127.513 70.0803 127.742 70.6193 128.032 71.1263C128.478 71.6616 128.909 71.4534 129.103 71.1263C130.456 68.866 129.474 65.6242 128.181 63.9438Z" fill="#422415"/>
<path d="M160.85 63.9438C161.457 63.1751 162.277 62.6008 163.207 62.2917C164.137 61.9826 165.137 61.9521 166.084 62.204C169.058 62.9178 168.359 66.5462 166.887 67.8696C165.954 68.7304 164.72 69.1898 163.452 69.1485C162.322 69.1485 161.831 69.2377 161.682 69.5202C161.517 70.0803 161.288 70.6193 160.998 71.1263C160.552 71.6616 160.121 71.4534 159.927 71.1263C158.574 68.866 159.556 65.6242 160.85 63.9438Z" fill="#422415"/>
<circle cx="125.449" cy="66.1739" r="2.23056" fill="#D6C0B6"/>
<circle cx="164.113" cy="66.1739" r="2.23056" fill="#D6C0B6"/>
<defs>
<linearGradient id="paint0_linear_11_431" x1="665.8" y1="500.951" x2="-184.56" y2="191.451" gradientUnits="userSpaceOnUse">
<stop stop-color="#989E28"/>
<stop offset="1" stop-color="#AAB033"/>
</linearGradient>
</defs>
</svg>
