<svg width="1474" height="1317" viewBox="0 0 1474 1317" fill="none" xmlns="http://www.w3.org/2000/svg">
<path d="M1431.27 951.999C1407.17 897.179 1360.88 851.429 1305.27 828.919C1247.36 805.469 1180.86 813.999 1119.86 806.149C1066.86 799.319 1028.66 775.669 997.019 733.619C966.709 693.329 939.539 648.709 890.019 630.069C850.859 615.349 806.339 619.429 767.419 634.779C695.679 662.999 641.509 723.119 595.889 782.999C554.239 837.689 520.269 897.569 443.229 899.519C366.189 901.469 292.749 857.519 215.139 869.159C112.549 884.559 27.139 969.959 9.219 1071.62C-7.561 1166.9 34.539 1259.32 106.869 1313.62H1350.09C1441.23 1217 1489.06 1083.39 1431.27 951.999Z" fill="#F7F0E3"/>
<path d="M307.42 1313.64H310.841C335.131 1286.72 353.579 1255.05 365.021 1220.64C384.161 1163.73 383.36 1104 362.75 1052.46C352.33 1026.46 337.29 1002.14 322.75 978.661C308 954.861 292.751 930.24 282.401 903.85C278.056 892.695 274.922 881.105 273.05 869.281C272.2 869.171 271.34 869.08 270.48 868.98C272.357 881.226 275.573 893.228 280.07 904.771C290.5 931.361 305.82 956.08 320.63 979.98C335.11 1003.37 350.09 1027.55 360.43 1053.39C380.82 1104.39 381.611 1163.5 362.651 1219.85C351.076 1254.67 332.252 1286.63 307.42 1313.64V1313.64Z" fill="white"/>
<path d="M1344.08 1205.21C1369.7 1210.67 1394.39 1215.57 1418.26 1218.65C1418.67 1217.86 1419.06 1217.06 1419.47 1216.27C1395.4 1213.21 1370.47 1208.27 1344.61 1202.77C1305.21 1194.37 1262.61 1185.29 1220.27 1185.29C1194.08 1185.29 1168.03 1188.77 1142.97 1198.06C1133.44 1201.6 1124.28 1206.05 1115.61 1211.36C1092.98 1201.71 1070.23 1191.18 1047.7 1179.63C1064.05 1167.31 1080.57 1155.24 1097.28 1143.58C1221.28 1057.01 1335.67 1007.93 1446.21 994C1445.99 993.19 1445.76 992.38 1445.53 991.57C1334.69 1005.57 1220.02 1054.82 1095.84 1141.57C1078.84 1153.48 1061.92 1165.81 1045.23 1178.39C1019.63 1165.23 994.723 1150.76 970.611 1135.03C926.661 1106.23 874.371 1065.12 828.711 1010.5C1005.71 990.64 1185.81 965.63 1332.93 867.31C1338.51 863.57 1344.7 859.17 1351.11 854.18C1350.4 853.67 1349.69 853.18 1348.97 852.68C1342.83 857.44 1336.9 861.68 1331.54 865.23C1184.46 963.53 1003.97 988.35 826.791 1008.23C794.531 969.23 765.701 923.35 745.661 870.23C714.461 787.56 716.1 706.44 750.19 647.66C751.67 645.1 753.191 642.59 754.841 640.1C753.421 640.76 752.011 641.44 750.601 642.1C749.721 643.52 748.861 644.95 748.021 646.39C713.561 705.83 711.851 787.73 743.331 871.11C763.251 923.89 791.821 969.55 823.831 1008.49C813.571 1009.64 803.324 1010.78 793.091 1011.9C756.191 1015.98 718.091 1020.19 680.991 1024.9C667.471 1026.65 653.721 1028.68 639.991 1031.22C610.651 969.31 578.431 908.92 536.781 857.12C536.191 857.72 535.581 858.29 534.981 858.88C576.271 910.28 608.291 970.23 637.451 1031.7C577.761 1043.08 519.811 1064.48 488.871 1114.28C459.971 1160.79 460.001 1225.08 488.951 1305.36C489.951 1308.14 490.951 1310.88 492.031 1313.6H494.701C493.561 1310.6 492.421 1307.6 491.301 1304.51C462.621 1224.99 462.521 1161.43 490.991 1115.6C521.571 1066.39 579.201 1045.28 638.551 1034.03C649.001 1056 659.001 1078.06 668.901 1100L669.981 1102.39C704.511 1178.61 740.221 1252.16 786.981 1313.63H790.101C742.911 1252.05 707.001 1178.05 672.261 1101.36L671.181 1098.97C661.321 1077.21 651.401 1055.31 641.181 1033.59C654.601 1031.11 668.091 1029.12 681.351 1027.42C718.351 1022.65 756.511 1018.42 793.351 1014.42C804.124 1013.23 814.914 1012.03 825.721 1010.83C871.821 1066.31 924.721 1107.99 969.231 1137.12C993.079 1152.69 1017.7 1167.05 1043.01 1180.12C1000.48 1212.28 959.111 1246.12 918.731 1279.12C904.731 1290.56 890.601 1302.08 876.341 1313.68H880.341C893.794 1302.76 907.127 1291.88 920.341 1281.05C961.011 1247.78 1002.67 1213.69 1045.5 1181.34C1067.91 1192.87 1090.5 1203.34 1113.04 1213.01C1082.25 1232.59 1057.15 1262.91 1041.98 1299.74C1040.08 1304.35 1038.42 1309 1036.89 1313.68H1039.52C1040.97 1309.32 1042.52 1304.99 1044.29 1300.68C1059.51 1263.76 1084.81 1233.46 1115.84 1214.19C1178.76 1240.92 1240.59 1260.76 1293.73 1276.48L1295.73 1277.07C1318.12 1283.69 1341.02 1290.48 1361.27 1301.38C1361.84 1300.73 1362.41 1300.09 1362.97 1299.44C1342.39 1288.27 1319.15 1281.39 1296.43 1274.68L1294.43 1274.09C1241.84 1258.52 1180.72 1238.93 1118.43 1212.59C1126.51 1207.78 1135.01 1203.71 1143.82 1200.43C1208.7 1176.37 1280.63 1191.69 1344.08 1205.21Z" fill="white"/>
<path d="M113.14 1043.27C124.14 1088.47 119.25 1137.27 99.6203 1177.2C86.7603 1203.34 68.1903 1227.01 45.3203 1247.33C45.7703 1248.04 46.2403 1248.74 46.7003 1249.44C69.9403 1228.85 88.8103 1204.84 101.86 1178.3C121.75 1137.87 126.75 1088.44 115.57 1042.68C106.83 1006.93 89.2703 976.68 65.0103 954.74C64.4703 955.37 63.9303 956.01 63.4003 956.65C87.2503 978.23 104.53 1008.05 113.14 1043.27Z" fill="white"/>
<path d="M678.999 470.719C700.739 492.999 710.499 530.459 698.489 564.999C686.859 598.469 661.369 626.189 630.749 643.999C606.109 658.339 573.969 666.249 549.749 651.229C531.639 640.009 522.249 617.989 521.749 596.699C521.249 575.409 528.389 554.639 537.239 535.269C549.719 507.949 566.509 481.469 591.529 464.859C625.999 441.999 657.999 449.319 678.999 470.719Z" fill="#F7F0E3"/>
<path d="M390.27 80.52H209.93V0H390.27V80.52ZM213.68 76.77H386.52V3.70001H213.68V76.77Z" fill="#E9DDCA"/>
<path d="M272.999 157.56H92.6094V77H272.999V157.56ZM96.4094 153.81H269.199V80.75H96.3594L96.4094 153.81Z" fill="#E9DDCA"/>
<path d="M1416.37 243.411C1404.69 204.584 1384.15 168.894 1354.75 136.341C1325.35 103.787 1285.17 76.8606 1234.21 55.5606C1183.31 34.2806 1118.64 23.6406 1040.21 23.6406C977.636 23.6406 913.867 32.0806 848.9 48.9606C783.933 65.8406 727.497 89.9539 679.59 121.301L741.87 292.301L708.49 319.301L756.9 333.531C804.68 308.524 848.213 290.364 887.5 279.051C926.786 267.737 968.483 262.111 1012.59 262.171C1056.72 262.171 1090.14 272.811 1112.83 294.091C1135.52 315.431 1146.83 341.091 1146.83 371.091C1146.83 407.411 1135.19 439.654 1111.92 467.821C1088.65 495.987 1062.88 524.484 1034.62 553.311C1015.03 573.311 996.026 593.957 977.62 615.251C959.241 636.529 942.921 659.501 928.88 683.861C914.545 708.756 903.136 735.225 894.88 762.741C886.26 790.934 881.97 822.547 882.01 857.581C882.01 868.891 882.25 882.341 882.91 898.001C883.02 900.881 883.17 903.701 883.34 906.481H837.58L887.52 940.251H1130.33C1129 931.552 1128.38 922.76 1128.48 913.961V891.391C1128.56 869.772 1132.93 848.384 1141.35 828.471C1150.01 807.679 1160.81 787.842 1173.57 769.281C1186.55 750.337 1201 732.448 1216.8 715.781C1232.73 698.841 1248.07 682.861 1262.8 667.841C1282.38 647.841 1302.6 626.561 1323.46 604.001C1343.97 581.918 1362.44 558.035 1378.67 532.641C1394.9 506.973 1408.16 479.543 1418.19 450.881C1428.61 421.467 1433.84 389.224 1433.88 354.151C1433.92 319.077 1428.08 282.164 1416.37 243.411Z" fill="#E49B31"/>
<path d="M961.18 250.25C917.507 250.25 876.3 255.697 837.56 266.59C798.82 277.484 755.796 295.057 708.49 319.31L632.09 113.91C679.377 83.6103 735.143 60.2769 799.39 43.9103C863.636 27.5436 926.66 19.3769 988.46 19.4103C1065.99 19.4103 1129.91 29.7069 1180.2 50.3002C1230.49 70.8936 1270.2 96.9503 1299.33 128.47C1328.38 160.017 1348.68 194.56 1360.22 232.1C1371.76 269.64 1377.52 305.384 1377.5 339.33C1377.5 373.29 1372.33 404.497 1362 432.95C1352.05 460.733 1338.95 487.28 1322.94 512.07C1306.87 536.688 1288.61 559.802 1268.38 581.13C1247.78 602.964 1227.78 623.557 1208.38 642.91C1193.82 657.47 1178.67 672.937 1162.93 689.31C1147.34 705.417 1133.06 722.731 1120.2 741.09C1107.61 759.019 1096.94 778.217 1088.36 798.37C1080.05 817.603 1075.72 838.319 1075.64 859.27V881.1C1075.54 889.62 1076.16 898.133 1077.48 906.55H837.48C834.855 893.066 833.33 879.391 832.92 865.66C832.27 850.51 832.03 837.49 832.03 826.54C832.03 792.627 836.273 762.03 844.76 734.75C852.942 708.078 864.222 682.456 878.37 658.41C892.301 634.787 908.458 612.549 926.62 592C944.793 571.4 963.573 551.4 982.96 532C1010.83 504.134 1036.29 476.557 1059.36 449.27C1082.32 421.99 1093.82 390.784 1093.86 355.65C1093.86 326.53 1082.67 301.74 1060.25 281.08C1037.83 260.42 1004.8 250.25 961.18 250.25Z" fill="#FBC343"/>
<path d="M1146.93 1176C1146.93 1219.78 1132.76 1253.58 1104.42 1277.39C1076.08 1301.2 1044.03 1313.13 1008.27 1313.16C972.449 1313.16 940.386 1301.24 912.079 1277.39C883.773 1253.54 869.616 1219.75 869.609 1176C869.609 1132.28 883.766 1098.49 912.079 1074.62C955.709 1037.8 1020.25 1029.62 1071.34 1055.43C1116.66 1078.37 1146.93 1124.93 1146.93 1176Z" fill="#E49B31"/>
<path d="M1099.43 1176C1099.43 1219.78 1085.26 1253.58 1056.92 1277.39C1028.58 1301.2 996.529 1313.13 960.769 1313.16C924.949 1313.16 892.886 1301.24 864.579 1277.39C836.273 1253.54 822.116 1219.75 822.109 1176C822.109 1132.28 836.266 1098.49 864.579 1074.62C892.893 1050.75 924.956 1038.83 960.769 1038.85C996.536 1038.85 1028.59 1050.77 1056.92 1074.62C1085.25 1098.47 1099.42 1132.26 1099.43 1176Z" fill="#FBC343"/>
<path d="M380.622 555.454C383.284 541.259 373.934 527.594 359.739 524.933C345.544 522.271 331.879 531.621 329.218 545.815C326.556 560.01 335.906 573.675 350.101 576.337C364.295 578.999 377.96 569.649 380.622 555.454Z" fill="#D3DFFF"/>
<path d="M393.045 604.425C394.541 596.44 389.236 588.746 381.196 587.24C373.157 585.734 365.427 590.986 363.931 598.971C362.435 606.956 367.74 614.651 375.779 616.157C383.819 617.663 391.549 612.41 393.045 604.425Z" fill="#D3DFFF"/>
<path d="M363.155 491.71C403.364 451.502 403.364 386.311 363.155 346.103C322.947 305.894 257.756 305.894 217.548 346.103C177.339 386.311 177.339 451.502 217.548 491.71C257.756 531.918 322.947 531.918 363.155 491.71Z" fill="#D3DFFF"/>
<path d="M250.82 431.87C257.983 431.87 263.79 426.063 263.79 418.9C263.79 411.737 257.983 405.93 250.82 405.93C243.657 405.93 237.85 411.737 237.85 418.9C237.85 426.063 243.657 431.87 250.82 431.87Z" fill="white"/>
<path d="M290.349 431.87C297.512 431.87 303.319 426.063 303.319 418.9C303.319 411.737 297.512 405.93 290.349 405.93C283.186 405.93 277.379 411.737 277.379 418.9C277.379 426.063 283.186 431.87 290.349 431.87Z" fill="white"/>
<path d="M329.89 431.87C337.053 431.87 342.86 426.063 342.86 418.9C342.86 411.737 337.053 405.93 329.89 405.93C322.727 405.93 316.92 411.737 316.92 418.9C316.92 426.063 322.727 431.87 329.89 431.87Z" fill="white"/>
<path d="M216.6 1261.62L226.22 1298.71C227.539 1303.47 230.478 1307.63 234.53 1310.46C238.582 1313.28 243.494 1314.61 248.42 1314.21C279.97 1312.07 345.5 1304.34 383.12 1276.62L372.43 1223.17C320.71 1220.24 272.34 1223.12 230.43 1237.17C220 1240.75 213.91 1251.26 216.6 1261.62Z" fill="#102048"/>
<path d="M276.869 1291.14C276.598 1291.14 276.334 1291.05 276.118 1290.88C275.902 1290.72 275.744 1290.49 275.669 1290.23L262.749 1244C262.705 1243.84 262.692 1243.68 262.712 1243.51C262.732 1243.35 262.784 1243.19 262.865 1243.05C262.946 1242.91 263.054 1242.78 263.183 1242.68C263.313 1242.58 263.461 1242.5 263.619 1242.46C263.777 1242.41 263.943 1242.4 264.106 1242.42C264.27 1242.44 264.428 1242.49 264.571 1242.57C264.715 1242.65 264.841 1242.76 264.941 1242.89C265.042 1243.02 265.116 1243.17 265.159 1243.33L278.079 1289.58C278.134 1289.77 278.145 1289.96 278.11 1290.15C278.074 1290.34 277.995 1290.52 277.876 1290.68C277.758 1290.83 277.606 1290.96 277.431 1291.04C277.255 1291.12 277.063 1291.17 276.869 1291.16V1291.14Z" fill="white"/>
<path d="M304.791 1284.89C304.519 1284.89 304.254 1284.8 304.037 1284.64C303.82 1284.47 303.663 1284.24 303.591 1283.98L290.671 1237.73C290.582 1237.41 290.624 1237.07 290.787 1236.78C290.95 1236.49 291.221 1236.28 291.541 1236.19C291.86 1236.1 292.202 1236.14 292.491 1236.31C292.78 1236.47 292.992 1236.74 293.081 1237.06L306.001 1283.31C306.087 1283.63 306.044 1283.97 305.881 1284.26C305.719 1284.55 305.449 1284.76 305.131 1284.85C305.02 1284.88 304.905 1284.89 304.791 1284.89V1284.89Z" fill="white"/>
<path d="M337.21 1061.14L217.01 1096.82L306.28 1219.13L434.44 1229.32L611.21 1154.58L544.03 1053.5L337.21 1061.14Z" fill="#FBC343"/>
<path d="M485.409 1078.13C749.409 999.99 791.809 1233.29 379.929 1275.76C365.379 1259.39 348.379 1230.98 341.629 1207.24L559.139 1106.73L485.409 1078.13Z" fill="#FBC343"/>
<path d="M496.62 1245.34C484.27 1241.34 472.44 1233.57 472.44 1233.57L430 1246.88L439.72 1293.03L483.79 1302.03C497.24 1277.43 498 1257.26 496.62 1245.34Z" fill="#F9B384"/>
<path d="M342.579 1208.86L340.689 1205.62C386.069 1179.25 502.289 1115.89 601.319 1097.21L602.009 1100.9C503.559 1119.47 387.779 1182.59 342.579 1208.86Z" fill="#E49B31"/>
<path d="M337.21 1061.14C91.5002 1014.43 27.8702 1250.56 439.74 1293C455.051 1275.95 466.238 1255.6 472.44 1233.54C409.18 1191.21 338.44 1150.97 260.91 1112.64L337.21 1061.14Z" fill="#FBC343"/>
<path d="M471.44 1235.15C459.75 1227.71 447.57 1219.85 434.67 1211.52C369.95 1169.73 296.58 1122.37 234.25 1095.36L235.75 1091.92C298.36 1119.05 371.86 1166.5 436.75 1208.37C449.64 1216.7 461.81 1224.56 473.49 1231.99L471.44 1235.15Z" fill="#E49B31"/>
<path d="M156.94 1178.22L153.66 1176.41C162.88 1159.71 177.66 1148.41 197.56 1142.94L198.56 1146.55C179.39 1151.86 165.78 1162.22 156.94 1178.22Z" fill="#E49B31"/>
<path d="M669.771 1164C660.931 1148 647.311 1137.64 628.141 1132.32L629.141 1128.71C649.051 1134.23 663.821 1145.49 673.041 1162.19L669.771 1164Z" fill="#E49B31"/>
<path d="M416.73 1291L414 1288.4C433.66 1267.35 445.73 1245.12 450.91 1220.46L454.58 1221.23C449.24 1246.58 436.87 1269.39 416.73 1291Z" fill="#E49B31"/>
<path d="M619.161 1231.59C587.681 1212.14 526.651 1245.75 511.331 1247.44C506.861 1247.94 501.701 1246.96 496.621 1245.34C498.021 1257.26 497.241 1277.43 483.811 1301.98L491.301 1303.5C491.301 1303.5 543.051 1322.5 597.951 1311.43C648.621 1301.24 643.911 1246.88 619.161 1231.59Z" fill="#102048"/>
<path d="M576.249 1295.21C576.12 1295.21 575.992 1295.19 575.869 1295.15C575.553 1295.05 575.291 1294.83 575.139 1294.53C574.987 1294.24 574.958 1293.9 575.059 1293.58C578.799 1281.74 580.429 1258.44 569.599 1242.79C569.465 1242.66 569.361 1242.51 569.294 1242.34C569.227 1242.16 569.199 1241.98 569.212 1241.79C569.225 1241.61 569.279 1241.43 569.369 1241.27C569.46 1241.11 569.585 1240.97 569.735 1240.86C569.886 1240.76 570.058 1240.68 570.24 1240.65C570.422 1240.62 570.609 1240.63 570.787 1240.68C570.965 1240.72 571.13 1240.81 571.271 1240.93C571.411 1241.05 571.523 1241.2 571.599 1241.37C582.949 1257.75 581.279 1282.02 577.389 1294.37C577.305 1294.61 577.151 1294.82 576.948 1294.97C576.745 1295.12 576.501 1295.2 576.249 1295.21V1295.21Z" fill="white"/>
<path d="M551.56 1299.89C551.435 1299.89 551.31 1299.87 551.19 1299.83C551.034 1299.78 550.888 1299.7 550.762 1299.6C550.636 1299.5 550.531 1299.37 550.455 1299.22C550.379 1299.08 550.332 1298.92 550.318 1298.75C550.303 1298.59 550.321 1298.43 550.37 1298.27C554.11 1286.42 555.74 1263.13 544.91 1247.48C544.817 1247.35 544.752 1247.19 544.717 1247.03C544.683 1246.87 544.68 1246.71 544.71 1246.54C544.74 1246.38 544.801 1246.23 544.89 1246.09C544.98 1245.95 545.095 1245.83 545.23 1245.74C545.366 1245.65 545.518 1245.58 545.679 1245.55C545.839 1245.51 546.005 1245.51 546.167 1245.54C546.328 1245.57 546.482 1245.63 546.62 1245.72C546.758 1245.81 546.877 1245.93 546.97 1246.06C558.31 1262.44 556.64 1286.71 552.75 1299.06C552.664 1299.31 552.503 1299.52 552.29 1299.67C552.076 1299.82 551.821 1299.89 551.56 1299.89V1299.89Z" fill="white"/>
<path d="M293.74 756.68C293.74 756.68 355.63 704.06 353.33 694.06C351.7 686.91 334.17 697.39 334.17 697.39C334.17 697.39 358.75 668.23 357.5 664.68C355.27 658.36 338.26 670.15 338.26 670.15C338.26 670.15 349.76 653.61 344.26 650.92C338.76 648.23 326.79 658.42 326.79 658.42C326.79 658.42 333.79 649.23 330.5 646.82C327.21 644.41 313.03 654.32 313.03 654.32C313.03 654.32 318.12 642.74 307.3 647.13C296.48 651.52 220.67 721.13 220.67 721.13L293.74 756.68Z" fill="#F9B384"/>
<path d="M319.059 694.27C318.748 694.269 318.448 694.151 318.219 693.94C307.599 684.24 302.909 681.88 291.219 678.27C291.051 678.232 290.893 678.159 290.754 678.057C290.615 677.954 290.499 677.824 290.413 677.675C290.327 677.526 290.273 677.36 290.254 677.189C290.235 677.018 290.251 676.844 290.302 676.68C290.354 676.515 290.438 676.363 290.551 676.232C290.664 676.102 290.803 675.997 290.958 675.922C291.114 675.848 291.283 675.807 291.455 675.801C291.628 675.796 291.799 675.826 291.959 675.89C304.099 679.62 308.959 682.06 319.959 692.09C320.148 692.26 320.281 692.483 320.34 692.73C320.399 692.978 320.381 693.237 320.289 693.474C320.196 693.711 320.034 693.914 319.823 694.056C319.612 694.198 319.363 694.273 319.109 694.27H319.059Z" fill="#E28B6D"/>
<path d="M300.42 722.81H300.24C299.913 722.763 299.618 722.588 299.419 722.323C299.22 722.059 299.134 721.727 299.18 721.4C300.39 712.7 303.18 707.26 307.55 704.77C311.33 702.65 316.25 702.87 322.16 705.42C322.465 705.552 322.705 705.8 322.827 706.11C322.949 706.419 322.943 706.764 322.81 707.069C322.677 707.374 322.429 707.614 322.12 707.736C321.81 707.858 321.465 707.852 321.16 707.72C316 705.49 311.83 705.229 308.77 706.949C305.13 708.949 302.77 713.95 301.64 721.74C301.599 722.035 301.453 722.305 301.229 722.502C301.005 722.698 300.718 722.808 300.42 722.81V722.81Z" fill="#E28B6D"/>
<path d="M297.499 670.21C297.328 670.208 297.159 670.172 297.003 670.103C296.847 670.034 296.706 669.935 296.589 669.81C296.357 669.576 296.227 669.26 296.227 668.93C296.227 668.601 296.357 668.285 296.589 668.05L312.119 653.41C312.36 653.182 312.682 653.059 313.014 653.069C313.346 653.078 313.661 653.219 313.889 653.46C314.117 653.702 314.24 654.024 314.23 654.356C314.221 654.688 314.08 655.002 313.839 655.23L298.309 669.86C298.091 670.072 297.803 670.197 297.499 670.21V670.21Z" fill="#E28B6D"/>
<path d="M311.88 675.209C311.635 675.207 311.397 675.134 311.193 674.999C310.989 674.863 310.83 674.671 310.733 674.446C310.637 674.222 310.608 673.974 310.65 673.733C310.692 673.492 310.803 673.268 310.97 673.089L325.89 657.549C326.001 657.421 326.137 657.317 326.29 657.243C326.442 657.169 326.608 657.126 326.778 657.119C326.947 657.111 327.117 657.138 327.275 657.197C327.434 657.257 327.579 657.348 327.702 657.466C327.824 657.584 327.921 657.725 327.987 657.881C328.053 658.037 328.086 658.205 328.085 658.375C328.084 658.545 328.049 658.712 327.981 658.868C327.913 659.023 327.814 659.163 327.69 659.279L312.78 674.819C312.664 674.942 312.525 675.039 312.37 675.106C312.215 675.173 312.049 675.208 311.88 675.209V675.209Z" fill="#E28B6D"/>
<path d="M326.561 684C326.245 683.995 325.942 683.874 325.711 683.66C325.47 683.432 325.328 683.119 325.317 682.787C325.306 682.456 325.426 682.134 325.651 681.89L337.351 669.34C337.58 669.113 337.888 668.984 338.21 668.979C338.532 668.974 338.844 669.093 339.08 669.313C339.317 669.532 339.459 669.834 339.478 670.156C339.496 670.478 339.39 670.795 339.181 671.04L327.481 683.6C327.362 683.726 327.22 683.826 327.062 683.895C326.904 683.963 326.733 683.999 326.561 684Z" fill="#E28B6D"/>
<path d="M527.5 1108.64L301.25 1117.39L276.25 911.14C276.25 911.14 351.99 839.29 381.13 812.84L430.33 810.32C583 879.69 558 966.34 527.5 1108.64Z" fill="#69AF07"/>
<path d="M430.33 810.32C430.33 810.32 605 825.25 660 944.89C713.87 1061.95 492.5 1103.64 492.5 1103.64L430.33 810.32Z" fill="#69AF07"/>
<path d="M230.729 836.001L302.889 748.191L235.409 707.301C207.259 726.871 152.829 771.201 106.699 821.401C96.5194 832.481 88.5593 845.401 84.5593 859.671C81.2117 871.345 80.4877 883.614 82.4393 895.601C87.4393 926.251 111.559 949.911 143.749 953.681C171.239 956.891 276.249 948.681 361.249 923.681L386.249 827.191C373.399 819.861 277.929 818.591 230.729 836.001Z" fill="#69AF07"/>
<g opacity="0.8">
<path opacity="0.8" d="M576.05 857.79L577.18 857.53L574.81 856.15C562.01 859.1 548.81 862.15 535.81 863.68C527.98 864.62 501.81 866.35 494.21 848.94C490.41 840.28 493.29 830.64 497.59 823.88L495.71 823.34C491.31 830.51 488.49 840.56 492.5 849.69C500.65 868.29 527.88 866.53 536.03 865.54C549.41 863.93 563 860.81 576.05 857.79Z" fill="white"/>
<path opacity="0.8" d="M657.551 992.721C649.211 989.501 640.551 986.171 631.551 987.021C615.651 988.531 602.051 1004.24 601.231 1022.02C600.671 1034.16 605.311 1046.89 614.151 1058.09L615.751 1057.09C607.101 1046.21 602.561 1033.85 603.101 1022.09C603.891 1005.17 616.731 990.261 631.721 988.841C640.341 988.041 648.381 991.131 656.891 994.421C659.891 995.601 663.021 996.781 666.161 997.791C666.321 997.181 666.481 996.581 666.621 995.971C663.541 995.001 660.521 993.871 657.551 992.721Z" fill="white"/>
<path opacity="0.8" d="M216.801 933.091C205.901 924.091 188.961 921.671 170.331 926.481C153.731 930.781 139.491 939.281 129.711 950.541C130.351 950.741 130.981 950.981 131.631 951.171C141.151 940.491 154.861 932.421 170.801 928.301C188.801 923.631 205.171 925.911 215.611 934.541C220.409 938.672 224.175 943.867 226.611 949.711L228.551 949.491C225.99 943.17 221.963 937.549 216.801 933.091V933.091Z" fill="white"/>
<path opacity="0.8" d="M118.24 809.08C138.67 804.01 158.61 796.881 176.99 786.291C183.94 782.291 191.78 777.19 197.3 769.7C203.17 761.7 205.12 752.231 202.52 744.311C201.493 741.273 199.747 738.528 197.43 736.311L195.99 737.49C198.162 739.536 199.79 742.089 200.73 744.921C203.15 752.261 201.3 761.12 195.79 768.6C190.48 775.81 182.79 780.781 176.06 784.681C158.71 794.681 139.96 801.58 120.69 806.57L118.24 809.08Z" fill="white"/>
</g>
<path d="M446.309 764.46V767.66L445.799 817.39L445.739 822.78C445.388 830.758 441.972 838.293 436.202 843.814C430.432 849.335 422.755 852.417 414.769 852.417C406.784 852.417 399.106 849.335 393.336 843.814C387.567 838.293 384.15 830.758 383.799 822.78L383.199 761.32L446.309 764.46Z" fill="#F9B384"/>
<path d="M446.28 767.66L445.77 817.39C418.13 806.14 406.77 776.22 406.77 776.22L446.28 767.66Z" fill="#102048"/>
<path d="M457.209 680.88C467.119 692.77 496.039 760.12 466.719 783.1C433.719 808.96 383.519 766.46 383.519 766.46L376.789 688L420.369 676.51L457.209 680.88Z" fill="#F9B384"/>
<path d="M354.58 676.561C354.58 676.561 257.92 726.981 336.74 872.311C346.86 890.971 369.28 899.12 388.46 890.01C393.32 887.691 397.65 884.395 401.18 880.328C404.71 876.262 407.365 871.512 408.979 866.374C410.592 861.237 411.13 855.822 410.559 850.467C409.988 845.112 408.321 839.932 405.66 835.25C392.77 812.35 380.32 782.861 385.66 760.911L354.58 676.561Z" fill="#102048"/>
<path d="M382.207 718.924C392.419 708.712 392.419 692.155 382.207 681.943C371.995 671.731 355.437 671.731 345.225 681.943C335.013 692.155 335.013 708.712 345.225 718.924C355.437 729.137 371.995 729.137 382.207 718.924Z" fill="#FBC343"/>
<path d="M395.88 731.84C393.05 715.53 391.33 704.34 407.82 695.93C407.82 695.93 465.93 706.5 477.02 684.58C488.11 662.66 471.21 628.05 435.82 652.09C345.22 634.39 333.07 719.18 360.54 747.44L387.65 743.28C388.947 743.08 390.19 742.624 391.309 741.938C392.427 741.252 393.398 740.35 394.164 739.285C394.93 738.22 395.476 737.014 395.771 735.735C396.066 734.457 396.103 733.133 395.88 731.84V731.84Z" fill="#102048"/>
<path d="M440.87 735.749C443.002 735.749 444.73 734.021 444.73 731.889C444.73 729.757 443.002 728.029 440.87 728.029C438.738 728.029 437.01 729.757 437.01 731.889C437.01 734.021 438.738 735.749 440.87 735.749Z" fill="#102048"/>
<path d="M467.02 722.87C469.152 722.87 470.88 721.142 470.88 719.01C470.88 716.879 469.152 715.15 467.02 715.15C464.888 715.15 463.16 716.879 463.16 719.01C463.16 721.142 464.888 722.87 467.02 722.87Z" fill="#102048"/>
<path d="M464.339 743.78C464.059 743.781 463.791 743.673 463.589 743.48C463.384 743.274 463.269 742.995 463.269 742.705C463.269 742.414 463.384 742.136 463.589 741.93C465.139 740.3 466.839 738.01 466.129 736.35C465.419 734.69 462.249 733.88 460.819 733.88C457.739 733.88 456.259 728.39 455.989 727.29C455.939 727.145 455.921 726.991 455.934 726.839C455.947 726.686 455.992 726.538 456.066 726.404C456.14 726.269 456.241 726.152 456.363 726.059C456.485 725.966 456.625 725.9 456.774 725.864C456.923 725.829 457.077 725.824 457.228 725.852C457.379 725.88 457.522 725.938 457.649 726.025C457.775 726.111 457.883 726.223 457.964 726.353C458.044 726.483 458.097 726.628 458.119 726.78C458.679 729.1 459.949 731.69 460.819 731.69C462.289 731.69 466.819 732.38 468.129 735.48C469.079 737.7 468.129 740.37 465.129 743.48C465.023 743.579 464.899 743.657 464.764 743.709C464.628 743.76 464.484 743.784 464.339 743.78Z" fill="#102048"/>
<path d="M464.539 758.439C464.321 758.439 464.108 758.373 463.929 758.249C456.659 753.339 449.309 757.459 449.239 757.499C449.115 757.571 448.978 757.617 448.836 757.636C448.694 757.655 448.549 757.645 448.411 757.608C448.272 757.571 448.143 757.507 448.029 757.42C447.916 757.332 447.82 757.223 447.749 757.099C447.606 756.846 447.568 756.548 447.643 756.268C447.718 755.987 447.899 755.747 448.149 755.599C448.499 755.399 456.759 750.769 465.149 756.439C465.269 756.519 465.372 756.621 465.452 756.741C465.532 756.861 465.588 756.995 465.616 757.137C465.644 757.278 465.643 757.423 465.615 757.565C465.586 757.706 465.53 757.84 465.449 757.959C465.348 758.107 465.212 758.229 465.053 758.312C464.895 758.396 464.718 758.439 464.539 758.439V758.439Z" fill="#102048"/>
<path d="M439.18 715.16C441.38 719.29 437.55 720.16 433.06 722.51C428.57 724.86 423.98 725.77 422.93 723.79C421.88 721.81 424.67 718.29 429.16 715.9C433.65 713.51 437.48 712 439.18 715.16Z" fill="#102048"/>
<path d="M455.54 707.69C456.54 711.38 459.26 709.77 463.27 708.69C467.28 707.61 470.51 705.63 470.04 703.87C469.57 702.11 465.96 701.53 461.96 702.58C457.96 703.63 454.79 704.84 455.54 707.69Z" fill="#102048"/>
<path opacity="0.4" d="M430.788 758.191C435.412 753.926 435.703 746.72 431.438 742.096C427.172 737.473 419.966 737.182 415.343 741.447C410.719 745.712 410.428 752.918 414.693 757.542C418.959 762.166 426.165 762.456 430.788 758.191Z" fill="#EB5D60"/>
<path d="M393.655 760.723C398.862 753.977 396.869 743.713 389.205 737.798C381.541 731.882 371.107 732.556 365.9 739.302C360.693 746.049 362.686 756.313 370.35 762.228C378.015 768.143 388.449 767.469 393.655 760.723Z" fill="#F9B384"/>
<path d="M386.56 755.67C386.271 755.67 385.994 755.555 385.789 755.35C385.585 755.146 385.47 754.869 385.47 754.58C385.48 753.003 385.101 751.448 384.367 750.053C383.632 748.657 382.565 747.464 381.26 746.58C380.231 745.845 379.037 745.375 377.783 745.209C376.53 745.044 375.255 745.188 374.07 745.63C373.818 745.685 373.554 745.65 373.326 745.53C373.097 745.411 372.917 745.215 372.818 744.977C372.72 744.739 372.707 744.473 372.785 744.227C372.862 743.981 373.023 743.769 373.24 743.63C374.758 743.054 376.395 742.859 378.006 743.063C379.617 743.267 381.153 743.863 382.48 744.8C384.082 745.882 385.392 747.343 386.296 749.052C387.199 750.761 387.668 752.666 387.66 754.6C387.655 754.887 387.536 755.161 387.33 755.361C387.124 755.561 386.847 755.672 386.56 755.67Z" fill="#102048"/>
<path d="M229.827 835.06L190.361 877.754L192.197 879.451L231.663 836.757L229.827 835.06Z" fill="#102048"/>
<path d="M507.861 1018.59L507.141 1016.2C535.871 1007.44 563.751 996.959 589.021 965.359L591.021 966.919C565.261 999.079 537.001 1009.71 507.861 1018.59Z" fill="#102048"/>
<path d="M525.33 921.779H280.92C272.13 921.779 265 929.479 265 938.989V1113.5C265 1123.01 272.13 1130.72 280.92 1130.72H525.33C534.12 1130.72 541.25 1123.01 541.25 1113.5V938.999C541.25 929.479 534.12 921.779 525.33 921.779Z" fill="#D3DFFF"/>
<path d="M415.999 1015.22C416.229 1015.23 416.455 1015.28 416.664 1015.38C416.873 1015.48 417.061 1015.61 417.217 1015.78C417.373 1015.95 417.494 1016.15 417.573 1016.36C417.653 1016.58 417.689 1016.81 417.679 1017.04V1035.46C417.696 1035.92 417.528 1036.37 417.214 1036.72C416.899 1037.06 416.463 1037.26 415.999 1037.28H390.219C389.756 1037.26 389.32 1037.06 389.005 1036.72C388.69 1036.37 388.523 1035.92 388.539 1035.46V1017C388.53 1016.77 388.566 1016.54 388.645 1016.32C388.725 1016.11 388.846 1015.91 389.002 1015.74C389.158 1015.57 389.346 1015.44 389.555 1015.34C389.764 1015.24 389.989 1015.19 390.219 1015.18H415.999V1015.22ZM415.999 1010.18H390.219C388.43 1010.2 386.722 1010.93 385.47 1012.21C384.218 1013.49 383.523 1015.21 383.539 1017V1035.42C383.523 1037.21 384.218 1038.93 385.47 1040.21C386.722 1041.49 388.43 1042.22 390.219 1042.24H415.999C417.789 1042.22 419.497 1041.49 420.749 1040.21C422.001 1038.93 422.695 1037.21 422.679 1035.42V1017C422.695 1015.21 422.001 1013.49 420.749 1012.21C419.497 1010.93 417.789 1010.2 415.999 1010.18V1010.18Z" fill="#1F3C88"/>
<path d="M1473.94 1311.14H0.259766V1316.14H1473.94V1311.14Z" fill="#102048"/>
</svg>
