<svg width="154" height="112" viewBox="0 0 154 112" fill="none" xmlns="http://www.w3.org/2000/svg">
<path opacity="0.16" d="M78.8 111.2C120.221 111.2 153.8 108.335 153.8 104.8C153.8 101.265 120.221 98.4 78.8 98.4C37.3786 98.4 3.79999 101.265 3.79999 104.8C3.79999 108.335 37.3786 111.2 78.8 111.2Z" fill="url(#paint0_radial_10_4668)"/>
<path d="M110.6 71.7L88.1 85.1H69.8L69.4 78L110.6 71.7Z" fill="#42244A"/>
<path d="M110.6 71.7L0 90.9V50.3L110.6 31.1V71.7Z" fill="url(#paint1_linear_10_4668)"/>
<path d="M69.8 85.1L78.8 104.8L88.1 85.1H69.8Z" fill="url(#paint2_linear_10_4668)"/>
<path d="M23.5525 71.171L23.6672 71.8691C23.8512 72.9889 23.8646 74.0189 23.7073 74.9592C23.55 75.8995 23.2464 76.7287 22.7963 77.4469C22.3451 78.1584 21.7622 78.7425 21.0475 79.1994C20.3396 79.6552 19.5202 79.9595 18.5893 80.1125C17.6652 80.2643 16.7915 80.2381 15.9682 80.0339C15.1516 79.8286 14.4124 79.4617 13.7506 78.9331C13.0876 78.3977 12.5279 77.7103 12.0713 76.8709C11.6215 76.0304 11.3046 75.0502 11.1206 73.9305L11.0059 73.2323C10.8208 72.1058 10.8075 71.0758 10.9658 70.1423C11.1231 69.202 11.4267 68.3728 11.8768 67.6545C12.3336 66.9352 12.916 66.3477 13.6239 65.8919C14.3386 65.4351 15.158 65.1307 16.0822 64.9789C17.013 64.8259 17.8868 64.8521 18.7033 65.0574C19.5266 65.2616 20.2663 65.6319 20.9225 66.1684C21.5855 66.7037 22.1419 67.3917 22.5917 68.2322C23.0472 69.0649 23.3675 70.0445 23.5525 71.171ZM20.6014 72.3728L20.4834 71.6544C20.3548 70.872 20.1709 70.1956 19.9318 69.6252C19.6926 69.0549 19.4015 68.5901 19.0584 68.2308C18.7153 67.8715 18.3282 67.6234 17.897 67.4864C17.4646 67.3427 16.9921 67.3129 16.4795 67.3971C15.9668 67.4814 15.5287 67.6607 15.165 67.9352C14.807 68.2019 14.523 68.5603 14.3129 69.0104C14.1096 69.4595 13.9859 69.9925 13.9418 70.6094C13.8976 71.2262 13.9398 71.9259 14.0684 72.7084L14.1864 73.4268C14.3139 74.2025 14.4977 74.8789 14.738 75.456C14.9772 76.0263 15.2689 76.4945 15.6131 76.8605C15.9561 77.2198 16.3438 77.4713 16.7762 77.6151C17.2085 77.7588 17.681 77.7885 18.1937 77.7043C18.7063 77.6201 19.1445 77.4407 19.5081 77.1662C19.8717 76.8917 20.1552 76.53 20.3585 76.0809C20.5607 75.6251 20.6839 75.0888 20.728 74.4719C20.7711 73.8483 20.7288 73.1486 20.6014 72.3728ZM27.6199 63.2911L30.0403 78.0233L27.0048 78.522L24.5844 63.7898L27.6199 63.2911ZM34.5224 68.6205L34.9114 70.9882L28.2132 72.0887L27.8242 69.721L34.5224 68.6205ZM34.1967 62.2106L34.5874 64.5884L27.1808 65.8052L26.7902 63.4274L34.1967 62.2106ZM38.9928 61.4226L41.4132 76.1548L38.3777 76.6535L35.9573 61.9213L38.9928 61.4226ZM45.8954 66.752L46.2844 69.1197L39.5861 70.2202L39.1971 67.8525L45.8954 66.752ZM45.5697 60.3421L45.9603 62.7199L38.5537 63.9367L38.1631 61.5589L45.5697 60.3421Z" fill="#FBE143"/>
<path d="M148.5 33.7L41.4 52.1V18.3L148.5 0V33.7Z" fill="url(#paint3_linear_10_4668)"/>
<path d="M53.2 25.6L58.3999 24.8C59.3999 24.6 60.2 24.6 60.7 24.6C61.2 24.6 61.6999 24.7 62.0999 24.9C62.4999 25.1 62.7999 25.4 63.0999 25.8C63.3999 26.2 63.4999 26.7 63.4999 27.3C63.4999 27.9 63.2999 28.5 62.9999 29.1C62.6999 29.7 62.2 30.1 61.7 30.5C62.5 30.6 63.0999 30.9 63.4999 31.4C63.8999 31.9 64.0999 32.5 64.0999 33.3C64.0999 33.9 64 34.5 63.7 35.1C63.4 35.7 62.9999 36.2 62.5999 36.6C62.0999 37 61.5 37.3 60.8 37.5C60.4 37.6 59.2999 37.8 57.5999 38.1L53.2 38.8V25.6ZM55.8999 27.4V30.4L57.5999 30.1C58.5999 29.9 59.2999 29.8 59.4999 29.8C59.9999 29.7 60.2999 29.5 60.5999 29.2C60.8999 28.9 60.9999 28.5 60.9999 28.1C60.9999 27.7 60.9 27.4 60.7 27.2C60.5 27 60.1 26.9 59.7 26.9C59.4 26.9 58.6999 27 57.3999 27.2L55.8999 27.4ZM55.8999 32.5V36L58.3 35.6C59.2 35.4 59.8999 35.3 60.0999 35.2C60.4999 35.1 60.7999 34.8 61.0999 34.5C61.2999 34.2 61.4999 33.8 61.4999 33.3C61.4999 32.9 61.4 32.6 61.2 32.3C61 32.1 60.6999 31.9 60.3999 31.8C59.9999 31.7 59.2999 31.8 58.0999 32L55.8999 32.5Z" fill="white"/>
<path d="M66.2999 36.6V23.5L68.8999 23.1V36.2L66.2999 36.6Z" fill="white"/>
<path d="M77.4999 30V27.8L83.1999 26.9V32.1C82.5999 32.7 81.7999 33.3 80.7999 33.9C79.7999 34.5 78.6999 34.8 77.5999 35C76.1999 35.2 74.9999 35.1 73.9999 34.7C72.9999 34.3 72.1999 33.6 71.6999 32.6C71.1999 31.6 70.8999 30.5 70.8999 29.2C70.8999 27.8 71.1999 26.6 71.7999 25.4C72.3999 24.3 73.1999 23.3 74.2999 22.6C75.0999 22 76.1999 21.7 77.3999 21.5C78.9999 21.2 80.2999 21.4 81.1999 21.9C82.0999 22.4 82.6999 23.3 82.9999 24.4L80.3999 25.3C80.1999 24.7 79.8999 24.2 79.3999 23.9C78.8999 23.6 78.2999 23.5 77.4999 23.6C76.2999 23.8 75.3999 24.3 74.7999 25.1C74.0999 25.9 73.7999 27.1 73.7999 28.5C73.7999 30 74.0999 31.2 74.7999 31.8C75.4999 32.5 76.3999 32.7 77.4999 32.5C78.0999 32.4 78.5999 32.2 79.1999 31.9C79.7999 31.6 80.1999 31.3 80.5999 30.9V29.2L77.4999 30Z" fill="white"/>
<path d="M90 28.6L92.6 27.9C92.8 28.7 93.1 29.3 93.5 29.6C93.9 29.9 94.6 30 95.4 29.9C96.2 29.8 96.9 29.5 97.3 29.1C97.7 28.7 97.9 28.2 97.9 27.7C97.9 27.4 97.8 27.1 97.6 27C97.4 26.8 97.1 26.7 96.7 26.6C96.4 26.5 95.7 26.5 94.6 26.4C93.2 26.3 92.2 26 91.6 25.6C90.8 25 90.4 24.2 90.4 23.2C90.4 22.5 90.6 21.9 91 21.2C91.4 20.6 91.9 20 92.6 19.6C93.3 19.2 94.2 18.9 95.2 18.7C96.8 18.4 98.1 18.6 98.9 19.2C99.7 19.8 100.2 20.7 100.2 21.9L97.6 22.4C97.5 21.7 97.2 21.3 96.9 21.1C96.5 20.9 96 20.8 95.2 20.9C94.4 21 93.8 21.3 93.4 21.7C93.1 21.9 93 22.2 93 22.6C93 22.9 93.1 23.2 93.4 23.3C93.7 23.5 94.5 23.7 95.8 23.8C97.1 23.9 98 24.1 98.6 24.3C99.2 24.5 99.7 24.9 100 25.4C100.3 25.9 100.5 26.6 100.5 27.4C100.5 28.1 100.3 28.9 99.9 29.6C99.5 30.3 98.9 30.9 98.1 31.3C97.3 31.7 96.4 32 95.3 32.2C93.6 32.5 92.4 32.3 91.5 31.7C90.6 31.1 90.2 30 90 28.6Z" fill="white"/>
<path d="M114.6 28.9L111.7 29.4L110.6 26.6L105.4 27.4L104.3 30.5L101.5 30.9L106.6 17L109.4 16.6L114.6 28.9ZM109.8 24.5L108 19.9L106.2 25L109.8 24.5Z" fill="white"/>
<path d="M116.1 28.7V15.8L118.7 15.4V26.1L125.3 25.1V27.3L116.1 28.7Z" fill="white"/>
<path d="M127.2 26.9V13.8L136.9 12.3V14.5L129.9 15.6V18.5L136.5 17.5V19.7L129.9 20.7V24.3L137.2 23.1V25.3L127.2 26.9Z" fill="white"/>
<defs>
<radialGradient id="paint0_radial_10_4668" cx="0" cy="0" r="1" gradientUnits="userSpaceOnUse" gradientTransform="translate(78.4761 104.739) scale(70.2774 5.7914)">
<stop stop-color="#1D1D1B"/>
<stop offset="1" stop-color="white"/>
</radialGradient>
<linearGradient id="paint1_linear_10_4668" x1="0.0453" y1="60.9984" x2="110.644" y2="60.9984" gradientUnits="userSpaceOnUse">
<stop stop-color="#92458A"/>
<stop offset="1" stop-color="#5F145B"/>
</linearGradient>
<linearGradient id="paint2_linear_10_4668" x1="78.9799" y1="85.7357" x2="78.9799" y2="102.413" gradientUnits="userSpaceOnUse">
<stop stop-color="#92458A"/>
<stop offset="1" stop-color="#5F145B"/>
</linearGradient>
<linearGradient id="paint3_linear_10_4668" x1="41.4018" y1="26.0199" x2="148.515" y2="26.0199" gradientUnits="userSpaceOnUse">
<stop stop-color="#FFBD23"/>
<stop offset="0.2529" stop-color="#FFBA22"/>
<stop offset="0.4979" stop-color="#FDAE20"/>
<stop offset="0.7396" stop-color="#FC9A1B"/>
<stop offset="0.978" stop-color="#F97F15"/>
<stop offset="1" stop-color="#F97C14"/>
</linearGradient>
</defs>
</svg>
